<?xml version="1.0" encoding="utf-8"?>
<!-- Generator: Adobe Illustrator 26.5.1, SVG Export Plug-In . SVG Version: 6.00 Build 0)  -->
<svg version="1.1" xmlns="http://www.w3.org/2000/svg" xmlns:xlink="http://www.w3.org/1999/xlink" x="0px" y="0px"
	 viewBox="0 0 360 640" style="enable-background:new 0 0 360 640;" xml:space="preserve">
<style type="text/css">
	.st0{clip-path:url(#SVGID_00000031172471625909362900000009814003119264094398_);enable-background:new    ;}
	.st1{display:none;}
	.st2{display:inline;}
	.st3{fill:#58595B;}
	.st4{opacity:1.000000e-02;fill:#231F20;}
</style>
<g id="Layer_1">
	<g id="editedback.psd_00000106834911194239228030000004630636744381578661_">
		<defs>
			<rect id="SVGID_1_" y="0" width="360" height="640"/>
		</defs>
		<clipPath id="SVGID_00000101811378854951779710000007270535153958962316_">
			<use xlink:href="#SVGID_1_"  style="overflow:visible;"/>
		</clipPath>
		
			<g id="Artboard_1" style="clip-path:url(#SVGID_00000101811378854951779710000007270535153958962316_);enable-background:new    ;">
			
				<image style="overflow:visible;" width="360" height="640" id="Layer_1_00000124881816100432347190000011963048441886065819_" xlink:href="E90EAEAA.png" >
			</image>
		</g>
	</g>
</g>
<g id="TEXT" class="st1">
	<g class="st2">
		<path class="st3" d="M88.1,495.9v1.3h-4.8c0.1-0.5,0.2-0.9,0.5-1.4c0.3-0.4,0.8-1,1.5-1.7c0.6-0.6,1-1,1.1-1.2
			c0.2-0.3,0.3-0.6,0.3-0.8c0-0.3-0.1-0.5-0.2-0.7c-0.2-0.2-0.4-0.2-0.7-0.2c-0.3,0-0.5,0.1-0.7,0.3s-0.3,0.5-0.3,0.9l-1.4-0.1
			c0.1-0.8,0.3-1.3,0.8-1.6s1-0.5,1.6-0.5c0.7,0,1.3,0.2,1.7,0.6s0.6,0.9,0.6,1.4c0,0.3-0.1,0.6-0.2,0.9c-0.1,0.3-0.3,0.6-0.5,0.9
			c-0.2,0.2-0.5,0.5-0.9,0.9s-0.7,0.7-0.8,0.8s-0.2,0.3-0.3,0.4H88.1z"/>
		<path class="st3" d="M93.6,495.9v1.3h-4.8c0.1-0.5,0.2-0.9,0.5-1.4c0.3-0.4,0.8-1,1.5-1.7c0.6-0.6,1-1,1.1-1.2
			c0.2-0.3,0.3-0.6,0.3-0.8c0-0.3-0.1-0.5-0.2-0.7c-0.2-0.2-0.4-0.2-0.7-0.2c-0.3,0-0.5,0.1-0.7,0.3s-0.3,0.5-0.3,0.9l-1.4-0.1
			c0.1-0.8,0.3-1.3,0.8-1.6s1-0.5,1.6-0.5c0.7,0,1.3,0.2,1.7,0.6s0.6,0.9,0.6,1.4c0,0.3-0.1,0.6-0.2,0.9c-0.1,0.3-0.3,0.6-0.5,0.9
			c-0.2,0.2-0.5,0.5-0.9,0.9s-0.7,0.7-0.8,0.8s-0.2,0.3-0.3,0.4H93.6z"/>
		<path class="st3" d="M103.7,497.2h-1.6l-0.6-1.6h-2.9l-0.6,1.6h-1.5l2.8-7.2h1.5L103.7,497.2z M101.1,494.3l-1-2.7l-1,2.7H101.1z"
			/>
		<path class="st3" d="M104.4,492h1.3v0.8c0.2-0.3,0.4-0.5,0.7-0.6s0.6-0.2,0.9-0.2c0.6,0,1.1,0.2,1.5,0.7s0.6,1.1,0.6,2
			c0,0.9-0.2,1.5-0.6,2c-0.4,0.5-0.9,0.7-1.5,0.7c-0.3,0-0.5-0.1-0.8-0.2s-0.5-0.3-0.7-0.6v2.6h-1.4V492z M105.8,494.5
			c0,0.6,0.1,1,0.3,1.3c0.2,0.3,0.5,0.4,0.8,0.4c0.3,0,0.6-0.1,0.8-0.4c0.2-0.3,0.3-0.7,0.3-1.3c0-0.5-0.1-0.9-0.3-1.2
			s-0.5-0.4-0.8-0.4c-0.3,0-0.6,0.1-0.8,0.4C105.9,493.6,105.8,494,105.8,494.5z"/>
		<path class="st3" d="M111.9,497.2h-1.4V492h1.3v0.7c0.2-0.3,0.4-0.6,0.6-0.7s0.4-0.2,0.6-0.2c0.3,0,0.6,0.1,0.9,0.3l-0.4,1.2
			c-0.2-0.1-0.4-0.2-0.6-0.2c-0.2,0-0.4,0.1-0.5,0.2c-0.1,0.1-0.2,0.3-0.3,0.6s-0.1,0.9-0.1,1.7V497.2z"/>
		<path class="st3" d="M114.5,491.3V490h1.4v1.3H114.5z M114.5,497.2V492h1.4v5.2H114.5z"/>
		<path class="st3" d="M117.3,497.2V490h1.4v7.2H117.3z"/>
		<path class="st3" d="M127.2,495.9v1.3h-4.8c0.1-0.5,0.2-0.9,0.5-1.4c0.3-0.4,0.8-1,1.5-1.7c0.6-0.6,1-1,1.1-1.2
			c0.2-0.3,0.3-0.6,0.3-0.8c0-0.3-0.1-0.5-0.2-0.7c-0.2-0.2-0.4-0.2-0.7-0.2c-0.3,0-0.5,0.1-0.7,0.3s-0.3,0.5-0.3,0.9l-1.4-0.1
			c0.1-0.8,0.3-1.3,0.8-1.6s1-0.5,1.6-0.5c0.7,0,1.3,0.2,1.7,0.6s0.6,0.9,0.6,1.4c0,0.3-0.1,0.6-0.2,0.9c-0.1,0.3-0.3,0.6-0.5,0.9
			c-0.2,0.2-0.5,0.5-0.9,0.9s-0.7,0.7-0.8,0.8s-0.2,0.3-0.3,0.4H127.2z"/>
		<path class="st3" d="M130.4,490c0.7,0,1.2,0.2,1.6,0.7c0.5,0.6,0.7,1.6,0.7,2.9c0,1.4-0.2,2.3-0.7,2.9c-0.4,0.5-0.9,0.7-1.6,0.7
			c-0.7,0-1.3-0.3-1.7-0.8c-0.4-0.5-0.6-1.5-0.6-2.9c0-1.3,0.2-2.3,0.7-2.9C129.2,490.2,129.7,490,130.4,490z M130.4,491.1
			c-0.2,0-0.3,0.1-0.4,0.2c-0.1,0.1-0.2,0.3-0.3,0.6c-0.1,0.4-0.1,1-0.1,1.8s0,1.4,0.1,1.7c0.1,0.3,0.2,0.5,0.3,0.6s0.3,0.2,0.4,0.2
			s0.3-0.1,0.4-0.2c0.1-0.1,0.2-0.3,0.3-0.6c0.1-0.4,0.1-0.9,0.1-1.8s0-1.4-0.1-1.7c-0.1-0.3-0.2-0.5-0.3-0.6
			C130.7,491.2,130.6,491.1,130.4,491.1z"/>
		<path class="st3" d="M138.3,495.9v1.3h-4.8c0.1-0.5,0.2-0.9,0.5-1.4c0.3-0.4,0.8-1,1.5-1.7c0.6-0.6,1-1,1.1-1.2
			c0.2-0.3,0.3-0.6,0.3-0.8c0-0.3-0.1-0.5-0.2-0.7c-0.2-0.2-0.4-0.2-0.7-0.2c-0.3,0-0.5,0.1-0.7,0.3s-0.3,0.5-0.3,0.9l-1.4-0.1
			c0.1-0.8,0.3-1.3,0.8-1.6s1-0.5,1.6-0.5c0.7,0,1.3,0.2,1.7,0.6s0.6,0.9,0.6,1.4c0,0.3-0.1,0.6-0.2,0.9c-0.1,0.3-0.3,0.6-0.5,0.9
			c-0.2,0.2-0.5,0.5-0.9,0.9s-0.7,0.7-0.8,0.8s-0.2,0.3-0.3,0.4H138.3z"/>
		<path class="st3" d="M139.2,495.3l1.3-0.2c0,0.3,0.2,0.6,0.3,0.8s0.4,0.3,0.7,0.3c0.3,0,0.5-0.1,0.7-0.3s0.3-0.5,0.3-0.9
			c0-0.3-0.1-0.6-0.3-0.8s-0.4-0.3-0.7-0.3c-0.2,0-0.4,0-0.6,0.1l0.2-1.1c0.4,0,0.7-0.1,0.8-0.2c0.2-0.2,0.3-0.4,0.3-0.7
			c0-0.2-0.1-0.4-0.2-0.6s-0.3-0.2-0.6-0.2c-0.2,0-0.4,0.1-0.6,0.2s-0.3,0.4-0.3,0.7l-1.3-0.2c0.1-0.4,0.2-0.8,0.4-1
			c0.2-0.3,0.4-0.5,0.7-0.6c0.3-0.1,0.7-0.2,1.1-0.2c0.7,0,1.2,0.2,1.6,0.6c0.3,0.4,0.5,0.7,0.5,1.2c0,0.6-0.3,1.1-1,1.5
			c0.4,0.1,0.7,0.3,1,0.6s0.4,0.7,0.4,1.1c0,0.6-0.2,1.2-0.7,1.6s-1,0.7-1.7,0.7c-0.6,0-1.2-0.2-1.6-0.6
			C139.5,496.4,139.2,495.9,139.2,495.3z"/>
		<path class="st3" d="M88.3,514.5l1.4,0.4c-0.2,0.8-0.6,1.4-1.1,1.7c-0.5,0.4-1.1,0.6-1.9,0.6c-1,0-1.7-0.3-2.3-1
			c-0.6-0.7-0.9-1.5-0.9-2.7c0-1.2,0.3-2.1,0.9-2.8c0.6-0.7,1.4-1,2.4-1c0.9,0,1.6,0.3,2.1,0.8c0.3,0.3,0.6,0.7,0.7,1.3l-1.4,0.3
			c-0.1-0.4-0.3-0.7-0.5-0.9s-0.6-0.3-1-0.3c-0.5,0-1,0.2-1.3,0.6s-0.5,1-0.5,1.9c0,0.9,0.2,1.5,0.5,1.9s0.7,0.6,1.3,0.6
			c0.4,0,0.7-0.1,1-0.4S88.2,515.1,88.3,514.5z"/>
		<path class="st3" d="M93.9,515.5l1.4,0.2c-0.2,0.5-0.5,0.9-0.8,1.1c-0.4,0.3-0.9,0.4-1.4,0.4c-0.9,0-1.6-0.3-2-0.9
			c-0.3-0.5-0.5-1.1-0.5-1.8c0-0.9,0.2-1.5,0.7-2c0.4-0.5,1-0.7,1.7-0.7c0.8,0,1.4,0.3,1.8,0.8c0.4,0.5,0.7,1.3,0.6,2.3H92
			c0,0.4,0.1,0.7,0.3,0.9c0.2,0.2,0.5,0.3,0.8,0.3c0.2,0,0.4-0.1,0.5-0.2S93.9,515.8,93.9,515.5z M94,514.1c0-0.4-0.1-0.7-0.3-0.9
			c-0.2-0.2-0.4-0.3-0.7-0.3c-0.3,0-0.5,0.1-0.7,0.3s-0.3,0.5-0.3,0.9H94z"/>
		<path class="st3" d="M97.8,517.2h-1.4V512h1.3v0.7c0.2-0.3,0.4-0.6,0.6-0.7s0.4-0.2,0.6-0.2c0.3,0,0.6,0.1,0.9,0.3l-0.4,1.2
			c-0.2-0.1-0.4-0.2-0.6-0.2c-0.2,0-0.4,0.1-0.5,0.2c-0.1,0.1-0.2,0.3-0.3,0.6s-0.1,0.9-0.1,1.7V517.2z"/>
		<path class="st3" d="M103.4,515.5l1.4,0.2c-0.2,0.5-0.5,0.9-0.8,1.1c-0.4,0.3-0.9,0.4-1.4,0.4c-0.9,0-1.6-0.3-2-0.9
			c-0.3-0.5-0.5-1.1-0.5-1.8c0-0.9,0.2-1.5,0.7-2c0.4-0.5,1-0.7,1.7-0.7c0.8,0,1.4,0.3,1.8,0.8c0.4,0.5,0.7,1.3,0.6,2.3h-3.4
			c0,0.4,0.1,0.7,0.3,0.9c0.2,0.2,0.5,0.3,0.8,0.3c0.2,0,0.4-0.1,0.5-0.2S103.3,515.8,103.4,515.5z M103.5,514.1
			c0-0.4-0.1-0.7-0.3-0.9c-0.2-0.2-0.4-0.3-0.7-0.3c-0.3,0-0.5,0.1-0.7,0.3s-0.3,0.5-0.3,0.9H103.5z"/>
		<path class="st3" d="M105.9,512h1.3v0.7c0.5-0.5,1-0.8,1.6-0.8c0.3,0,0.6,0.1,0.9,0.2s0.4,0.3,0.6,0.6c0.2-0.3,0.5-0.5,0.7-0.6
			s0.5-0.2,0.8-0.2c0.4,0,0.7,0.1,1,0.2c0.3,0.2,0.5,0.4,0.6,0.7c0.1,0.2,0.1,0.6,0.1,1.1v3.3h-1.4v-3c0-0.5,0-0.8-0.1-1
			c-0.1-0.2-0.3-0.3-0.6-0.3c-0.2,0-0.4,0.1-0.5,0.2s-0.3,0.3-0.4,0.5c-0.1,0.2-0.1,0.6-0.1,1.1v2.5H109v-2.8c0-0.5,0-0.8-0.1-1
			s-0.1-0.3-0.2-0.3s-0.2-0.1-0.4-0.1c-0.2,0-0.4,0.1-0.6,0.2s-0.3,0.3-0.4,0.5s-0.1,0.6-0.1,1.1v2.5h-1.4V512z"/>
		<path class="st3" d="M114.5,514.5c0-0.5,0.1-0.9,0.3-1.3s0.5-0.8,1-1s0.9-0.3,1.4-0.3c0.8,0,1.4,0.3,1.9,0.8
			c0.5,0.5,0.8,1.2,0.8,1.9c0,0.8-0.3,1.4-0.8,2c-0.5,0.5-1.1,0.8-1.9,0.8c-0.5,0-0.9-0.1-1.4-0.3s-0.8-0.5-1-0.9
			C114.6,515.6,114.5,515.1,114.5,514.5z M115.9,514.6c0,0.5,0.1,0.9,0.4,1.2s0.5,0.4,0.9,0.4s0.7-0.1,0.9-0.4s0.4-0.7,0.4-1.2
			c0-0.5-0.1-0.9-0.4-1.2s-0.5-0.4-0.9-0.4s-0.7,0.1-0.9,0.4S115.9,514.1,115.9,514.6z"/>
		<path class="st3" d="M125.7,517.2h-1.4v-2.6c0-0.6,0-0.9-0.1-1.1c-0.1-0.2-0.2-0.3-0.3-0.4s-0.3-0.1-0.5-0.1
			c-0.2,0-0.5,0.1-0.6,0.2s-0.3,0.3-0.4,0.5s-0.1,0.6-0.1,1.2v2.3H121V512h1.3v0.8c0.5-0.6,1-0.9,1.7-0.9c0.3,0,0.6,0.1,0.8,0.2
			c0.3,0.1,0.4,0.2,0.6,0.4s0.2,0.4,0.3,0.6s0.1,0.5,0.1,0.9V517.2z"/>
		<path class="st3" d="M126.4,512h1.5l1.2,3.7l1.2-3.7h1.4l-1.8,5l-0.3,0.9c-0.1,0.3-0.2,0.5-0.3,0.7s-0.2,0.3-0.4,0.4
			c-0.1,0.1-0.3,0.2-0.5,0.2s-0.4,0.1-0.7,0.1c-0.3,0-0.5,0-0.8-0.1l-0.1-1.1c0.2,0,0.4,0.1,0.6,0.1c0.3,0,0.6-0.1,0.7-0.3
			c0.2-0.2,0.3-0.4,0.4-0.7L126.4,512z"/>
		<path class="st3" d="M139.7,515.9v1.3h-4.8c0.1-0.5,0.2-0.9,0.5-1.4c0.3-0.4,0.8-1,1.5-1.7c0.6-0.6,1-1,1.1-1.2
			c0.2-0.3,0.3-0.6,0.3-0.8c0-0.3-0.1-0.5-0.2-0.7c-0.2-0.2-0.4-0.2-0.7-0.2c-0.3,0-0.5,0.1-0.7,0.3s-0.3,0.5-0.3,0.9l-1.4-0.1
			c0.1-0.8,0.3-1.3,0.8-1.6s1-0.5,1.6-0.5c0.7,0,1.3,0.2,1.7,0.6s0.6,0.9,0.6,1.4c0,0.3-0.1,0.6-0.2,0.9c-0.1,0.3-0.3,0.6-0.5,0.9
			c-0.2,0.2-0.5,0.5-0.9,0.9s-0.7,0.7-0.8,0.8s-0.2,0.3-0.3,0.4H139.7z"/>
		<path class="st3" d="M140.9,512h1.3v0.8c0.2-0.3,0.4-0.5,0.7-0.6s0.6-0.2,0.9-0.2c0.6,0,1.1,0.2,1.5,0.7s0.6,1.1,0.6,2
			c0,0.9-0.2,1.5-0.6,2c-0.4,0.5-0.9,0.7-1.5,0.7c-0.3,0-0.5-0.1-0.8-0.2s-0.5-0.3-0.7-0.6v2.6h-1.4V512z M142.3,514.5
			c0,0.6,0.1,1,0.3,1.3c0.2,0.3,0.5,0.4,0.8,0.4c0.3,0,0.6-0.1,0.8-0.4c0.2-0.3,0.3-0.7,0.3-1.3c0-0.5-0.1-0.9-0.3-1.2
			s-0.5-0.4-0.8-0.4c-0.3,0-0.6,0.1-0.8,0.4C142.4,513.6,142.3,514,142.3,514.5z"/>
		<path class="st3" d="M147,512h1.3v0.7c0.5-0.5,1-0.8,1.6-0.8c0.3,0,0.6,0.1,0.9,0.2s0.4,0.3,0.6,0.6c0.2-0.3,0.5-0.5,0.7-0.6
			s0.5-0.2,0.8-0.2c0.4,0,0.7,0.1,1,0.2c0.3,0.2,0.5,0.4,0.6,0.7c0.1,0.2,0.1,0.6,0.1,1.1v3.3h-1.4v-3c0-0.5,0-0.8-0.1-1
			c-0.1-0.2-0.3-0.3-0.6-0.3c-0.2,0-0.4,0.1-0.5,0.2s-0.3,0.3-0.4,0.5c-0.1,0.2-0.1,0.6-0.1,1.1v2.5h-1.4v-2.8c0-0.5,0-0.8-0.1-1
			s-0.1-0.3-0.2-0.3s-0.2-0.1-0.4-0.1c-0.2,0-0.4,0.1-0.6,0.2s-0.3,0.3-0.4,0.5s-0.1,0.6-0.1,1.1v2.5H147V512z"/>
		<path class="st3" d="M85.6,527.2v-6.3h-2.4V520h5.7v0.8h-2.4v6.3H85.6z"/>
		<path class="st3" d="M89.8,527.2V520h0.9v2.6c0.4-0.5,0.9-0.7,1.6-0.7c0.4,0,0.7,0.1,1,0.2c0.3,0.2,0.5,0.4,0.6,0.6
			s0.2,0.7,0.2,1.2v3.3h-0.9v-3.3c0-0.4-0.1-0.8-0.3-1c-0.2-0.2-0.5-0.3-0.8-0.3c-0.3,0-0.5,0.1-0.7,0.2c-0.2,0.1-0.4,0.3-0.5,0.5
			s-0.1,0.5-0.1,1v2.8H89.8z"/>
		<path class="st3" d="M98.9,525.5l0.9,0.1c-0.1,0.5-0.4,0.9-0.8,1.2s-0.9,0.4-1.5,0.4c-0.8,0-1.4-0.2-1.8-0.7
			c-0.4-0.5-0.7-1.1-0.7-2c0-0.9,0.2-1.5,0.7-2s1-0.7,1.7-0.7c0.7,0,1.3,0.2,1.7,0.7s0.7,1.1,0.7,2c0,0.1,0,0.1,0,0.2H96
			c0,0.6,0.2,1,0.5,1.3s0.7,0.5,1.1,0.5c0.3,0,0.6-0.1,0.8-0.3S98.8,525.9,98.9,525.5z M96,524.1h2.9c0-0.4-0.1-0.8-0.3-1
			c-0.3-0.3-0.6-0.5-1.1-0.5c-0.4,0-0.7,0.1-1,0.4S96,523.6,96,524.1z"/>
		<path class="st3" d="M102.4,527.2l2.7-7.2h1l2.9,7.2h-1.1l-0.8-2.2h-3l-0.8,2.2H102.4z M104.5,524.2h2.4l-0.7-2
			c-0.2-0.6-0.4-1.1-0.5-1.5c-0.1,0.5-0.2,0.9-0.4,1.4L104.5,524.2z"/>
		<path class="st3" d="M109.8,527.2V520h0.9v7.2H109.8z"/>
		<path class="st3" d="M113.9,526.4l0.1,0.8c-0.2,0.1-0.5,0.1-0.7,0.1c-0.3,0-0.6-0.1-0.7-0.2s-0.3-0.2-0.4-0.4
			c-0.1-0.2-0.1-0.5-0.1-1v-3h-0.6V522h0.6v-1.3l0.9-0.5v1.8h0.9v0.7H113v3c0,0.3,0,0.4,0,0.5s0.1,0.1,0.2,0.2s0.2,0.1,0.3,0.1
			C113.6,526.4,113.8,526.4,113.9,526.4z"/>
		<path class="st3" d="M118.2,526.5c-0.3,0.3-0.6,0.5-0.9,0.6s-0.6,0.2-1,0.2c-0.6,0-1-0.1-1.3-0.4c-0.3-0.3-0.5-0.6-0.5-1.1
			c0-0.3,0.1-0.5,0.2-0.7c0.1-0.2,0.3-0.4,0.5-0.5s0.4-0.2,0.6-0.3c0.2,0,0.4-0.1,0.8-0.1c0.7-0.1,1.2-0.2,1.6-0.3
			c0-0.1,0-0.2,0-0.2c0-0.4-0.1-0.6-0.2-0.8c-0.2-0.2-0.6-0.3-1-0.3c-0.4,0-0.7,0.1-0.9,0.2c-0.2,0.1-0.3,0.4-0.4,0.8l-0.9-0.1
			c0.1-0.4,0.2-0.7,0.4-0.9c0.2-0.2,0.4-0.4,0.8-0.5c0.3-0.1,0.7-0.2,1.2-0.2c0.4,0,0.8,0.1,1.1,0.2s0.5,0.2,0.6,0.4
			c0.1,0.2,0.2,0.4,0.3,0.6c0,0.1,0,0.4,0,0.8v1.2c0,0.8,0,1.3,0.1,1.5c0,0.2,0.1,0.4,0.2,0.6h-0.9
			C118.3,527,118.2,526.8,118.2,526.5z M118.1,524.6c-0.3,0.1-0.8,0.2-1.4,0.3c-0.4,0.1-0.6,0.1-0.8,0.2s-0.3,0.2-0.3,0.3
			c-0.1,0.1-0.1,0.3-0.1,0.4c0,0.2,0.1,0.4,0.3,0.6s0.4,0.2,0.8,0.2c0.3,0,0.6-0.1,0.9-0.2c0.3-0.1,0.5-0.4,0.6-0.6
			c0.1-0.2,0.1-0.5,0.1-0.9V524.6z"/>
		<path class="st3" d="M120.3,527.2V522h0.8v0.8c0.2-0.4,0.4-0.6,0.6-0.7s0.4-0.2,0.6-0.2c0.3,0,0.6,0.1,0.9,0.3l-0.3,0.8
			c-0.2-0.1-0.4-0.2-0.6-0.2c-0.2,0-0.4,0.1-0.5,0.2c-0.2,0.1-0.3,0.3-0.3,0.5c-0.1,0.3-0.1,0.7-0.1,1v2.7H120.3z"/>
		<path class="st3" d="M126.6,527.2V520h5.2v0.8h-4.2v2.2h4v0.8h-4v2.4h4.4v0.8H126.6z"/>
		<path class="st3" d="M133.1,527.2V520h0.9v7.2H133.1z"/>
		<path class="st3" d="M138.9,525.5l0.9,0.1c-0.1,0.5-0.4,0.9-0.8,1.2s-0.9,0.4-1.5,0.4c-0.8,0-1.4-0.2-1.8-0.7
			c-0.4-0.5-0.7-1.1-0.7-2c0-0.9,0.2-1.5,0.7-2s1-0.7,1.7-0.7c0.7,0,1.3,0.2,1.7,0.7s0.7,1.1,0.7,2c0,0.1,0,0.1,0,0.2H136
			c0,0.6,0.2,1,0.5,1.3s0.7,0.5,1.1,0.5c0.3,0,0.6-0.1,0.8-0.3S138.8,525.9,138.9,525.5z M136,524.1h2.9c0-0.4-0.1-0.8-0.3-1
			c-0.3-0.3-0.6-0.5-1.1-0.5c-0.4,0-0.7,0.1-1,0.4S136,523.6,136,524.1z"/>
		<path class="st3" d="M144.3,525.3l0.9,0.1c-0.1,0.6-0.3,1.1-0.7,1.4c-0.4,0.3-0.9,0.5-1.4,0.5c-0.7,0-1.3-0.2-1.7-0.7
			c-0.4-0.5-0.6-1.1-0.6-2c0-0.6,0.1-1,0.3-1.5s0.5-0.7,0.8-0.9c0.4-0.2,0.8-0.3,1.2-0.3c0.6,0,1,0.1,1.4,0.4
			c0.4,0.3,0.6,0.7,0.7,1.2l-0.9,0.1c-0.1-0.3-0.2-0.6-0.4-0.8s-0.5-0.3-0.7-0.3c-0.4,0-0.8,0.2-1.1,0.5c-0.3,0.3-0.4,0.8-0.4,1.5
			c0,0.7,0.1,1.2,0.4,1.5s0.6,0.5,1,0.5c0.3,0,0.6-0.1,0.9-0.3S144.2,525.7,144.3,525.3z"/>
		<path class="st3" d="M147.8,526.4l0.1,0.8c-0.2,0.1-0.5,0.1-0.7,0.1c-0.3,0-0.6-0.1-0.7-0.2s-0.3-0.2-0.4-0.4
			c-0.1-0.2-0.1-0.5-0.1-1v-3h-0.6V522h0.6v-1.3l0.9-0.5v1.8h0.9v0.7H147v3c0,0.3,0,0.4,0,0.5s0.1,0.1,0.2,0.2s0.2,0.1,0.3,0.1
			C147.5,526.4,147.7,526.4,147.8,526.4z"/>
		<path class="st3" d="M148.7,527.2V522h0.8v0.8c0.2-0.4,0.4-0.6,0.6-0.7s0.4-0.2,0.6-0.2c0.3,0,0.6,0.1,0.9,0.3l-0.3,0.8
			c-0.2-0.1-0.4-0.2-0.6-0.2c-0.2,0-0.4,0.1-0.5,0.2c-0.2,0.1-0.3,0.3-0.3,0.5c-0.1,0.3-0.1,0.7-0.1,1v2.7H148.7z"/>
		<path class="st3" d="M152,521v-1h0.9v1H152z M152,527.2V522h0.9v5.2H152z"/>
		<path class="st3" d="M157.6,525.3l0.9,0.1c-0.1,0.6-0.3,1.1-0.7,1.4c-0.4,0.3-0.9,0.5-1.4,0.5c-0.7,0-1.3-0.2-1.7-0.7
			c-0.4-0.5-0.6-1.1-0.6-2c0-0.6,0.1-1,0.3-1.5s0.5-0.7,0.8-0.9c0.4-0.2,0.8-0.3,1.2-0.3c0.6,0,1,0.1,1.4,0.4
			c0.4,0.3,0.6,0.7,0.7,1.2l-0.9,0.1c-0.1-0.3-0.2-0.6-0.4-0.8s-0.5-0.3-0.7-0.3c-0.4,0-0.8,0.2-1.1,0.5c-0.3,0.3-0.4,0.8-0.4,1.5
			c0,0.7,0.1,1.2,0.4,1.5s0.6,0.5,1,0.5c0.3,0,0.6-0.1,0.9-0.3S157.6,525.7,157.6,525.3z"/>
		<path class="st3" d="M161.4,527.3l2.1-7.4h0.7l-2.1,7.4H161.4z"/>
		<path class="st3" d="M172,526.3v0.8h-4.7c0-0.2,0-0.4,0.1-0.6c0.1-0.3,0.3-0.6,0.6-1s0.6-0.7,1.1-1.1c0.8-0.6,1.3-1.1,1.6-1.5
			c0.3-0.4,0.4-0.7,0.4-1.1c0-0.3-0.1-0.6-0.4-0.9c-0.2-0.2-0.6-0.4-1-0.4c-0.4,0-0.8,0.1-1,0.4s-0.4,0.6-0.4,1.1l-0.9-0.1
			c0.1-0.7,0.3-1.2,0.7-1.5c0.4-0.4,0.9-0.5,1.6-0.5c0.7,0,1.2,0.2,1.6,0.6s0.6,0.9,0.6,1.4c0,0.3-0.1,0.6-0.2,0.8s-0.3,0.6-0.6,0.9
			s-0.7,0.7-1.4,1.3c-0.5,0.4-0.9,0.7-1,0.9c-0.1,0.2-0.3,0.3-0.4,0.5H172z"/>
		<path class="st3" d="M173,525.5l0.8-0.1c0.1,0.4,0.2,0.7,0.4,0.9s0.5,0.3,0.8,0.3c0.3,0,0.5-0.1,0.7-0.2s0.4-0.3,0.5-0.5
			c0.1-0.2,0.2-0.5,0.3-0.8s0.1-0.7,0.1-1.1c0,0,0-0.1,0-0.2c-0.2,0.3-0.4,0.5-0.7,0.7c-0.3,0.2-0.6,0.3-1,0.3
			c-0.6,0-1.1-0.2-1.5-0.6s-0.6-1-0.6-1.7c0-0.7,0.2-1.3,0.6-1.8s1-0.7,1.6-0.7c0.5,0,0.9,0.1,1.3,0.4s0.7,0.6,0.9,1.1
			c0.2,0.5,0.3,1.1,0.3,2c0,0.9-0.1,1.6-0.3,2.2c-0.2,0.5-0.5,1-0.9,1.2s-0.9,0.4-1.4,0.4c-0.6,0-1-0.2-1.4-0.5
			C173.3,526.5,173.1,526.1,173,525.5z M176.6,522.3c0-0.5-0.1-0.9-0.4-1.2s-0.6-0.4-1-0.4c-0.4,0-0.7,0.2-1,0.5s-0.4,0.7-0.4,1.2
			c0,0.5,0.1,0.8,0.4,1.1c0.3,0.3,0.6,0.4,1,0.4c0.4,0,0.7-0.1,1-0.4C176.5,523.2,176.6,522.9,176.6,522.3z"/>
		<path class="st3" d="M178.6,525.5l0.8-0.1c0.1,0.4,0.2,0.7,0.4,0.9s0.5,0.3,0.8,0.3c0.3,0,0.5-0.1,0.7-0.2
			c0.2-0.1,0.4-0.3,0.5-0.5c0.1-0.2,0.2-0.5,0.3-0.8s0.1-0.7,0.1-1.1c0,0,0-0.1,0-0.2c-0.2,0.3-0.4,0.5-0.7,0.7
			c-0.3,0.2-0.6,0.3-1,0.3c-0.6,0-1.1-0.2-1.5-0.6s-0.6-1-0.6-1.7c0-0.7,0.2-1.3,0.6-1.8s1-0.7,1.6-0.7c0.5,0,0.9,0.1,1.3,0.4
			s0.7,0.6,0.9,1.1c0.2,0.5,0.3,1.1,0.3,2c0,0.9-0.1,1.6-0.3,2.2c-0.2,0.5-0.5,1-0.9,1.2c-0.4,0.3-0.9,0.4-1.4,0.4
			c-0.6,0-1-0.2-1.4-0.5C178.9,526.5,178.7,526.1,178.6,525.5z M182.2,522.3c0-0.5-0.1-0.9-0.4-1.2s-0.6-0.4-1-0.4
			c-0.4,0-0.7,0.2-1,0.5s-0.4,0.7-0.4,1.2c0,0.5,0.1,0.8,0.4,1.1c0.3,0.3,0.6,0.4,1,0.4c0.4,0,0.7-0.1,1-0.4
			C182.1,523.2,182.2,522.9,182.2,522.3z"/>
		<path class="st3" d="M186.7,525.1l0.9-0.1c0,0.5,0.1,0.9,0.3,1.1c0.2,0.2,0.4,0.3,0.8,0.3c0.2,0,0.4-0.1,0.6-0.2
			c0.2-0.1,0.3-0.3,0.4-0.4c0.1-0.2,0.1-0.5,0.1-0.9V520h0.9v4.9c0,0.6-0.1,1.1-0.2,1.4c-0.1,0.3-0.4,0.6-0.7,0.8
			c-0.3,0.2-0.7,0.3-1.1,0.3c-0.6,0-1.1-0.2-1.4-0.5C186.8,526.4,186.7,525.8,186.7,525.1z"/>
		<path class="st3" d="M191.7,524.6c0-1,0.3-1.7,0.8-2.1c0.4-0.4,1-0.6,1.6-0.6c0.7,0,1.3,0.2,1.7,0.7c0.5,0.5,0.7,1.1,0.7,1.9
			c0,0.7-0.1,1.2-0.3,1.6c-0.2,0.4-0.5,0.7-0.9,0.9c-0.4,0.2-0.8,0.3-1.3,0.3c-0.7,0-1.3-0.2-1.8-0.7
			C191.9,526.1,191.7,525.4,191.7,524.6z M192.6,524.6c0,0.7,0.1,1.2,0.4,1.5c0.3,0.3,0.7,0.5,1.1,0.5c0.4,0,0.8-0.2,1.1-0.5
			c0.3-0.3,0.4-0.8,0.4-1.5c0-0.6-0.1-1.1-0.4-1.5c-0.3-0.3-0.7-0.5-1.1-0.5c-0.4,0-0.8,0.2-1.1,0.5
			C192.8,523.4,192.6,523.9,192.6,524.6z"/>
		<path class="st3" d="M197.6,527.2V520h0.9v2.6c0.4-0.5,0.9-0.7,1.6-0.7c0.4,0,0.7,0.1,1,0.2c0.3,0.2,0.5,0.4,0.6,0.6
			s0.2,0.7,0.2,1.2v3.3H201v-3.3c0-0.4-0.1-0.8-0.3-1c-0.2-0.2-0.5-0.3-0.8-0.3c-0.3,0-0.5,0.1-0.7,0.2c-0.2,0.1-0.4,0.3-0.5,0.5
			s-0.1,0.5-0.1,1v2.8H197.6z"/>
		<path class="st3" d="M203.2,527.2V522h0.8v0.7c0.4-0.6,0.9-0.9,1.7-0.9c0.3,0,0.6,0.1,0.9,0.2c0.3,0.1,0.5,0.3,0.6,0.4
			s0.2,0.4,0.3,0.6c0,0.2,0,0.4,0,0.9v3.2h-0.9V524c0-0.4,0-0.6-0.1-0.8c-0.1-0.2-0.2-0.3-0.4-0.4c-0.2-0.1-0.4-0.2-0.6-0.2
			c-0.4,0-0.7,0.1-1,0.4c-0.3,0.2-0.4,0.7-0.4,1.4v2.8H203.2z"/>
		<path class="st3" d="M208.4,525.6l0.9-0.1c0,0.3,0.2,0.6,0.4,0.8c0.2,0.2,0.5,0.3,0.9,0.3c0.4,0,0.7-0.1,0.9-0.2
			c0.2-0.2,0.3-0.4,0.3-0.6c0-0.2-0.1-0.4-0.3-0.5c-0.1-0.1-0.4-0.2-0.9-0.3c-0.6-0.2-1.1-0.3-1.3-0.4c-0.2-0.1-0.4-0.3-0.6-0.5
			c-0.1-0.2-0.2-0.4-0.2-0.7c0-0.2,0.1-0.4,0.2-0.6c0.1-0.2,0.2-0.4,0.4-0.5c0.1-0.1,0.3-0.2,0.6-0.3c0.2-0.1,0.5-0.1,0.8-0.1
			c0.4,0,0.8,0.1,1.1,0.2c0.3,0.1,0.5,0.3,0.7,0.5c0.1,0.2,0.2,0.5,0.3,0.8l-0.9,0.1c0-0.3-0.2-0.5-0.3-0.6
			c-0.2-0.1-0.5-0.2-0.8-0.2c-0.4,0-0.7,0.1-0.9,0.2s-0.3,0.3-0.3,0.5c0,0.1,0,0.2,0.1,0.3c0.1,0.1,0.2,0.2,0.3,0.2
			c0.1,0,0.3,0.1,0.8,0.2c0.6,0.2,1.1,0.3,1.3,0.4c0.2,0.1,0.4,0.3,0.6,0.5s0.2,0.5,0.2,0.8c0,0.3-0.1,0.6-0.3,0.8
			c-0.2,0.3-0.4,0.5-0.7,0.6c-0.3,0.1-0.7,0.2-1.1,0.2c-0.7,0-1.2-0.1-1.5-0.4C208.7,526.6,208.5,526.2,208.4,525.6z"/>
		<path class="st3" d="M215.6,526.4l0.1,0.8c-0.2,0.1-0.5,0.1-0.7,0.1c-0.3,0-0.6-0.1-0.7-0.2s-0.3-0.2-0.4-0.4
			c-0.1-0.2-0.1-0.5-0.1-1v-3h-0.6V522h0.6v-1.3l0.9-0.5v1.8h0.9v0.7h-0.9v3c0,0.3,0,0.4,0,0.5c0,0.1,0.1,0.1,0.2,0.2
			c0.1,0,0.2,0.1,0.3,0.1C215.4,526.4,215.5,526.4,215.6,526.4z"/>
		<path class="st3" d="M216.2,524.6c0-1,0.3-1.7,0.8-2.1c0.4-0.4,1-0.6,1.6-0.6c0.7,0,1.3,0.2,1.7,0.7c0.5,0.5,0.7,1.1,0.7,1.9
			c0,0.7-0.1,1.2-0.3,1.6c-0.2,0.4-0.5,0.7-0.9,0.9c-0.4,0.2-0.8,0.3-1.3,0.3c-0.7,0-1.3-0.2-1.8-0.7
			C216.4,526.1,216.2,525.4,216.2,524.6z M217.1,524.6c0,0.7,0.1,1.2,0.4,1.5c0.3,0.3,0.7,0.5,1.1,0.5c0.4,0,0.8-0.2,1.1-0.5
			s0.4-0.8,0.4-1.5c0-0.6-0.1-1.1-0.4-1.5c-0.3-0.3-0.7-0.5-1.1-0.5c-0.4,0-0.8,0.2-1.1,0.5S217.1,523.9,217.1,524.6z"/>
		<path class="st3" d="M222.1,527.2V522h0.8v0.7c0.4-0.6,0.9-0.9,1.7-0.9c0.3,0,0.6,0.1,0.9,0.2c0.3,0.1,0.5,0.3,0.6,0.4
			s0.2,0.4,0.3,0.6c0,0.2,0,0.4,0,0.9v3.2h-0.9V524c0-0.4,0-0.6-0.1-0.8c-0.1-0.2-0.2-0.3-0.4-0.4c-0.2-0.1-0.4-0.2-0.6-0.2
			c-0.4,0-0.7,0.1-1,0.4c-0.3,0.2-0.4,0.7-0.4,1.4v2.8H222.1z"/>
		<path class="st3" d="M230.2,524.9l0.9-0.1c0,0.4,0.1,0.7,0.3,0.9c0.2,0.2,0.4,0.4,0.7,0.6c0.3,0.1,0.7,0.2,1.1,0.2
			c0.4,0,0.7-0.1,1-0.2s0.5-0.3,0.6-0.4c0.1-0.2,0.2-0.4,0.2-0.6c0-0.2-0.1-0.4-0.2-0.6c-0.1-0.2-0.3-0.3-0.6-0.4
			c-0.2-0.1-0.6-0.2-1.3-0.3c-0.7-0.2-1.1-0.3-1.4-0.4c-0.3-0.2-0.6-0.4-0.8-0.7c-0.2-0.3-0.3-0.6-0.3-0.9c0-0.4,0.1-0.7,0.3-1
			c0.2-0.3,0.5-0.6,0.9-0.7s0.8-0.2,1.3-0.2c0.5,0,1,0.1,1.4,0.3c0.4,0.2,0.7,0.4,0.9,0.8s0.3,0.7,0.4,1.1l-0.9,0.1
			c0-0.5-0.2-0.8-0.5-1c-0.3-0.2-0.7-0.3-1.2-0.3c-0.6,0-1,0.1-1.3,0.3c-0.3,0.2-0.4,0.5-0.4,0.8c0,0.3,0.1,0.5,0.3,0.6
			c0.2,0.2,0.7,0.3,1.4,0.5c0.8,0.2,1.3,0.3,1.6,0.5c0.4,0.2,0.7,0.4,0.9,0.7c0.2,0.3,0.3,0.6,0.3,1c0,0.4-0.1,0.7-0.3,1.1
			c-0.2,0.3-0.5,0.6-0.9,0.8c-0.4,0.2-0.9,0.3-1.4,0.3c-0.6,0-1.2-0.1-1.6-0.3c-0.4-0.2-0.8-0.5-1-0.9
			C230.3,525.8,230.2,525.3,230.2,524.9z"/>
		<path class="st3" d="M239,526.4l0.1,0.8c-0.2,0.1-0.5,0.1-0.7,0.1c-0.3,0-0.6-0.1-0.7-0.2s-0.3-0.2-0.4-0.4
			c-0.1-0.2-0.1-0.5-0.1-1v-3h-0.6V522h0.6v-1.3l0.9-0.5v1.8h0.9v0.7h-0.9v3c0,0.3,0,0.4,0,0.5c0,0.1,0.1,0.1,0.2,0.2
			c0.1,0,0.2,0.1,0.3,0.1C238.7,526.4,238.8,526.4,239,526.4z"/>
		<path class="st3" d="M240.1,527.2v-1h1v1c0,0.4-0.1,0.7-0.2,0.9c-0.1,0.2-0.3,0.4-0.6,0.5l-0.2-0.4c0.2-0.1,0.3-0.2,0.4-0.4
			c0.1-0.2,0.1-0.4,0.1-0.7H240.1z"/>
		<path class="st3" d="M244.2,527.2l2.7-7.2h1l2.9,7.2h-1.1L249,525h-3l-0.8,2.2H244.2z M246.3,524.2h2.4l-0.7-2
			c-0.2-0.6-0.4-1.1-0.5-1.5c-0.1,0.5-0.2,0.9-0.4,1.4L246.3,524.2z"/>
		<path class="st3" d="M252.3,527.2h-0.8V520h0.9v2.6c0.4-0.5,0.8-0.7,1.4-0.7c0.3,0,0.6,0.1,0.9,0.2c0.3,0.1,0.5,0.3,0.7,0.5
			c0.2,0.2,0.3,0.5,0.4,0.8s0.2,0.7,0.2,1.1c0,0.9-0.2,1.6-0.7,2.1s-1,0.7-1.6,0.7c-0.6,0-1.1-0.3-1.4-0.8V527.2z M252.3,524.5
			c0,0.6,0.1,1.1,0.3,1.3c0.3,0.5,0.7,0.7,1.1,0.7c0.4,0,0.7-0.2,1-0.5c0.3-0.3,0.4-0.8,0.4-1.5c0-0.7-0.1-1.2-0.4-1.5
			c-0.3-0.3-0.6-0.5-1-0.5c-0.4,0-0.7,0.2-1,0.5C252.5,523.4,252.3,523.9,252.3,524.5z"/>
		<path class="st3" d="M257.9,527.2h-0.8V520h0.9v2.6c0.4-0.5,0.8-0.7,1.4-0.7c0.3,0,0.6,0.1,0.9,0.2c0.3,0.1,0.5,0.3,0.7,0.5
			c0.2,0.2,0.3,0.5,0.4,0.8s0.2,0.7,0.2,1.1c0,0.9-0.2,1.6-0.7,2.1s-1,0.7-1.6,0.7c-0.6,0-1.1-0.3-1.4-0.8V527.2z M257.9,524.5
			c0,0.6,0.1,1.1,0.3,1.3c0.3,0.5,0.7,0.7,1.1,0.7c0.4,0,0.7-0.2,1-0.5c0.3-0.3,0.4-0.8,0.4-1.5c0-0.7-0.1-1.2-0.4-1.5
			c-0.3-0.3-0.6-0.5-1-0.5c-0.4,0-0.7,0.2-1,0.5C258,523.4,257.9,523.9,257.9,524.5z"/>
		<path class="st3" d="M262.3,524.6c0-1,0.3-1.7,0.8-2.1c0.4-0.4,1-0.6,1.6-0.6c0.7,0,1.3,0.2,1.7,0.7c0.5,0.5,0.7,1.1,0.7,1.9
			c0,0.7-0.1,1.2-0.3,1.6c-0.2,0.4-0.5,0.7-0.9,0.9c-0.4,0.2-0.8,0.3-1.3,0.3c-0.7,0-1.3-0.2-1.8-0.7
			C262.6,526.1,262.3,525.4,262.3,524.6z M263.2,524.6c0,0.7,0.1,1.2,0.4,1.5c0.3,0.3,0.7,0.5,1.1,0.5c0.4,0,0.8-0.2,1.1-0.5
			s0.4-0.8,0.4-1.5c0-0.6-0.1-1.1-0.4-1.5c-0.3-0.3-0.7-0.5-1.1-0.5c-0.4,0-0.8,0.2-1.1,0.5S263.2,523.9,263.2,524.6z"/>
		<path class="st3" d="M270.1,526.4l0.1,0.8c-0.2,0.1-0.5,0.1-0.7,0.1c-0.3,0-0.6-0.1-0.7-0.2s-0.3-0.2-0.4-0.4
			c-0.1-0.2-0.1-0.5-0.1-1v-3h-0.6V522h0.6v-1.3l0.9-0.5v1.8h0.9v0.7h-0.9v3c0,0.3,0,0.4,0,0.5c0,0.1,0.1,0.1,0.2,0.2
			c0.1,0,0.2,0.1,0.3,0.1C269.8,526.4,270,526.4,270.1,526.4z"/>
		<path class="st3" d="M270.6,525.6l0.9-0.1c0,0.3,0.2,0.6,0.4,0.8c0.2,0.2,0.5,0.3,0.9,0.3c0.4,0,0.7-0.1,0.9-0.2
			c0.2-0.2,0.3-0.4,0.3-0.6c0-0.2-0.1-0.4-0.3-0.5c-0.1-0.1-0.4-0.2-0.9-0.3c-0.6-0.2-1.1-0.3-1.3-0.4c-0.2-0.1-0.4-0.3-0.6-0.5
			c-0.1-0.2-0.2-0.4-0.2-0.7c0-0.2,0.1-0.4,0.2-0.6c0.1-0.2,0.2-0.4,0.4-0.5c0.1-0.1,0.3-0.2,0.6-0.3c0.2-0.1,0.5-0.1,0.8-0.1
			c0.4,0,0.8,0.1,1.1,0.2c0.3,0.1,0.5,0.3,0.7,0.5c0.1,0.2,0.2,0.5,0.3,0.8l-0.9,0.1c0-0.3-0.2-0.5-0.3-0.6
			c-0.2-0.1-0.5-0.2-0.8-0.2c-0.4,0-0.7,0.1-0.9,0.2s-0.3,0.3-0.3,0.5c0,0.1,0,0.2,0.1,0.3c0.1,0.1,0.2,0.2,0.3,0.2
			c0.1,0,0.3,0.1,0.8,0.2c0.6,0.2,1.1,0.3,1.3,0.4c0.2,0.1,0.4,0.3,0.6,0.5s0.2,0.5,0.2,0.8c0,0.3-0.1,0.6-0.3,0.8
			c-0.2,0.3-0.4,0.5-0.7,0.6c-0.3,0.1-0.7,0.2-1.1,0.2c-0.7,0-1.2-0.1-1.5-0.4C271,526.6,270.7,526.2,270.6,525.6z"/>
		<path class="st3" d="M276.2,527.2v-4.5h-0.8V522h0.8v-0.6c0-0.3,0-0.6,0.1-0.8c0.1-0.2,0.2-0.4,0.4-0.6c0.2-0.1,0.5-0.2,0.9-0.2
			c0.2,0,0.5,0,0.8,0.1l-0.1,0.8c-0.2,0-0.4,0-0.5,0c-0.3,0-0.5,0.1-0.6,0.2s-0.2,0.3-0.2,0.6v0.5h1v0.7h-1v4.5H276.2z"/>
		<path class="st3" d="M278.4,524.6c0-1,0.3-1.7,0.8-2.1c0.4-0.4,1-0.6,1.6-0.6c0.7,0,1.3,0.2,1.7,0.7c0.5,0.5,0.7,1.1,0.7,1.9
			c0,0.7-0.1,1.2-0.3,1.6c-0.2,0.4-0.5,0.7-0.9,0.9c-0.4,0.2-0.8,0.3-1.3,0.3c-0.7,0-1.3-0.2-1.8-0.7
			C278.7,526.1,278.4,525.4,278.4,524.6z M279.3,524.6c0,0.7,0.1,1.2,0.4,1.5c0.3,0.3,0.7,0.5,1.1,0.5c0.4,0,0.8-0.2,1.1-0.5
			s0.4-0.8,0.4-1.5c0-0.6-0.1-1.1-0.4-1.5c-0.3-0.3-0.7-0.5-1.1-0.5c-0.4,0-0.8,0.2-1.1,0.5S279.3,523.9,279.3,524.6z"/>
		<path class="st3" d="M284.3,527.2V522h0.8v0.8c0.2-0.4,0.4-0.6,0.6-0.7c0.2-0.1,0.4-0.2,0.6-0.2c0.3,0,0.6,0.1,0.9,0.3l-0.3,0.8
			c-0.2-0.1-0.4-0.2-0.6-0.2c-0.2,0-0.4,0.1-0.5,0.2c-0.2,0.1-0.3,0.3-0.3,0.5c-0.1,0.3-0.1,0.7-0.1,1v2.7H284.3z"/>
		<path class="st3" d="M291,527.2v-0.7c-0.3,0.5-0.8,0.8-1.5,0.8c-0.4,0-0.8-0.1-1.1-0.3c-0.3-0.2-0.6-0.5-0.8-1
			c-0.2-0.4-0.3-0.9-0.3-1.4c0-0.5,0.1-1,0.3-1.4c0.2-0.4,0.4-0.7,0.8-1s0.7-0.3,1.2-0.3c0.3,0,0.6,0.1,0.8,0.2
			c0.2,0.1,0.4,0.3,0.6,0.5V520h0.9v7.2H291z M288.2,524.6c0,0.7,0.1,1.2,0.4,1.5s0.6,0.5,1,0.5c0.4,0,0.7-0.2,1-0.5
			c0.3-0.3,0.4-0.8,0.4-1.4c0-0.7-0.1-1.2-0.4-1.6s-0.6-0.5-1-0.5c-0.4,0-0.7,0.2-1,0.5C288.4,523.4,288.2,523.9,288.2,524.6z"/>
		<path class="st3" d="M83.7,547.2V540h3c0.8,0,1.3,0.1,1.7,0.2c0.3,0.1,0.6,0.4,0.8,0.7s0.3,0.7,0.3,1.1c0,0.5-0.2,1-0.5,1.3
			c-0.3,0.3-0.8,0.6-1.4,0.7c0.3,0.2,0.6,0.4,0.8,0.6s0.5,0.6,0.8,1.2l0.9,1.4h-1.7l-1-1.6c-0.4-0.6-0.6-0.9-0.8-1.1
			c-0.1-0.1-0.3-0.2-0.4-0.3c-0.2-0.1-0.4-0.1-0.7-0.1h-0.3v3H83.7z M85.2,543h1.1c0.7,0,1.1,0,1.3-0.1s0.3-0.2,0.4-0.3
			s0.1-0.3,0.1-0.5c0-0.2-0.1-0.4-0.2-0.6c-0.1-0.1-0.3-0.2-0.5-0.3c-0.1,0-0.5,0-1.1,0h-1.1V543z"/>
		<path class="st3" d="M93.9,545.5l1.4,0.2c-0.2,0.5-0.5,0.9-0.8,1.1c-0.4,0.3-0.9,0.4-1.4,0.4c-0.9,0-1.6-0.3-2-0.9
			c-0.3-0.5-0.5-1.1-0.5-1.8c0-0.9,0.2-1.5,0.7-2c0.4-0.5,1-0.7,1.7-0.7c0.8,0,1.4,0.3,1.8,0.8c0.4,0.5,0.7,1.3,0.6,2.3H92
			c0,0.4,0.1,0.7,0.3,0.9c0.2,0.2,0.5,0.3,0.8,0.3c0.2,0,0.4-0.1,0.5-0.2S93.9,545.8,93.9,545.5z M94,544.1c0-0.4-0.1-0.7-0.3-0.9
			c-0.2-0.2-0.4-0.3-0.7-0.3c-0.3,0-0.5,0.1-0.7,0.3s-0.3,0.5-0.3,0.9H94z"/>
		<path class="st3" d="M101,543.5l-1.4,0.2c0-0.3-0.1-0.5-0.3-0.6s-0.4-0.2-0.6-0.2c-0.3,0-0.6,0.1-0.8,0.4
			c-0.2,0.2-0.3,0.6-0.3,1.2c0,0.6,0.1,1,0.3,1.3s0.5,0.4,0.8,0.4c0.3,0,0.5-0.1,0.6-0.2c0.2-0.1,0.3-0.4,0.4-0.8l1.3,0.2
			c-0.1,0.6-0.4,1.1-0.8,1.4s-0.9,0.5-1.6,0.5c-0.8,0-1.4-0.2-1.8-0.7s-0.7-1.1-0.7-2c0-0.9,0.2-1.5,0.7-2c0.5-0.5,1.1-0.7,1.8-0.7
			c0.6,0,1.1,0.1,1.5,0.4C100.6,542.5,100.9,543,101,543.5z"/>
		<path class="st3" d="M105.1,545.5l1.4,0.2c-0.2,0.5-0.5,0.9-0.8,1.1c-0.4,0.3-0.9,0.4-1.4,0.4c-0.9,0-1.6-0.3-2-0.9
			c-0.3-0.5-0.5-1.1-0.5-1.8c0-0.9,0.2-1.5,0.7-2c0.4-0.5,1-0.7,1.7-0.7c0.8,0,1.4,0.3,1.8,0.8c0.4,0.5,0.7,1.3,0.6,2.3h-3.4
			c0,0.4,0.1,0.7,0.3,0.9c0.2,0.2,0.5,0.3,0.8,0.3c0.2,0,0.4-0.1,0.5-0.2S105,545.8,105.1,545.5z M105.1,544.1
			c0-0.4-0.1-0.7-0.3-0.9c-0.2-0.2-0.4-0.3-0.7-0.3c-0.3,0-0.5,0.1-0.7,0.3s-0.3,0.5-0.3,0.9H105.1z"/>
		<path class="st3" d="M107.6,542h1.3v0.8c0.2-0.3,0.4-0.5,0.7-0.6s0.6-0.2,0.9-0.2c0.6,0,1.1,0.2,1.5,0.7s0.6,1.1,0.6,2
			c0,0.9-0.2,1.5-0.6,2c-0.4,0.5-0.9,0.7-1.5,0.7c-0.3,0-0.5-0.1-0.8-0.2s-0.5-0.3-0.7-0.6v2.6h-1.4V542z M108.9,544.5
			c0,0.6,0.1,1,0.3,1.3c0.2,0.3,0.5,0.4,0.8,0.4c0.3,0,0.6-0.1,0.8-0.4c0.2-0.3,0.3-0.7,0.3-1.3c0-0.5-0.1-0.9-0.3-1.2
			s-0.5-0.4-0.8-0.4c-0.3,0-0.6,0.1-0.8,0.4C109.1,543.6,108.9,544,108.9,544.5z"/>
		<path class="st3" d="M116.1,542v1.1h-0.9v2.1c0,0.4,0,0.7,0,0.7c0,0.1,0.1,0.1,0.1,0.2s0.1,0.1,0.2,0.1c0.1,0,0.3,0,0.6-0.1
			l0.1,1.1c-0.3,0.1-0.7,0.2-1.1,0.2c-0.2,0-0.5,0-0.7-0.1c-0.2-0.1-0.3-0.2-0.4-0.3c-0.1-0.1-0.2-0.3-0.2-0.5c0-0.2,0-0.5,0-1v-2.3
			h-0.6V542h0.6v-1l1.4-0.8v1.8H116.1z"/>
		<path class="st3" d="M117.1,541.3V540h1.4v1.3H117.1z M117.1,547.2V542h1.4v5.2H117.1z"/>
		<path class="st3" d="M119.5,544.5c0-0.5,0.1-0.9,0.3-1.3s0.5-0.8,1-1s0.9-0.3,1.4-0.3c0.8,0,1.4,0.3,1.9,0.8
			c0.5,0.5,0.8,1.2,0.8,1.9c0,0.8-0.3,1.4-0.8,2c-0.5,0.5-1.1,0.8-1.9,0.8c-0.5,0-0.9-0.1-1.4-0.3s-0.8-0.5-1-0.9
			C119.6,545.6,119.5,545.1,119.5,544.5z M120.9,544.6c0,0.5,0.1,0.9,0.4,1.2s0.5,0.4,0.9,0.4s0.7-0.1,0.9-0.4s0.4-0.7,0.4-1.2
			c0-0.5-0.1-0.9-0.4-1.2s-0.5-0.4-0.9-0.4s-0.7,0.1-0.9,0.4S120.9,544.1,120.9,544.6z"/>
		<path class="st3" d="M130.7,547.2h-1.4v-2.6c0-0.6,0-0.9-0.1-1.1c-0.1-0.2-0.2-0.3-0.3-0.4s-0.3-0.1-0.5-0.1
			c-0.2,0-0.5,0.1-0.6,0.2s-0.3,0.3-0.4,0.5s-0.1,0.6-0.1,1.2v2.3h-1.4V542h1.3v0.8c0.5-0.6,1-0.9,1.7-0.9c0.3,0,0.6,0.1,0.8,0.2
			c0.3,0.1,0.4,0.2,0.6,0.4s0.2,0.4,0.3,0.6s0.1,0.5,0.1,0.9V547.2z"/>
		<path class="st3" d="M134.5,545.3l1.3-0.2c0,0.3,0.2,0.6,0.3,0.8s0.4,0.3,0.7,0.3c0.3,0,0.5-0.1,0.7-0.3s0.3-0.5,0.3-0.9
			c0-0.3-0.1-0.6-0.3-0.8s-0.4-0.3-0.7-0.3c-0.2,0-0.4,0-0.6,0.1l0.2-1.1c0.4,0,0.7-0.1,0.8-0.2c0.2-0.2,0.3-0.4,0.3-0.7
			c0-0.2-0.1-0.4-0.2-0.6s-0.3-0.2-0.6-0.2c-0.2,0-0.4,0.1-0.6,0.2s-0.3,0.4-0.3,0.7l-1.3-0.2c0.1-0.4,0.2-0.8,0.4-1
			c0.2-0.3,0.4-0.5,0.7-0.6c0.3-0.1,0.7-0.2,1.1-0.2c0.7,0,1.2,0.2,1.6,0.6c0.3,0.4,0.5,0.7,0.5,1.2c0,0.6-0.3,1.1-1,1.5
			c0.4,0.1,0.7,0.3,1,0.6s0.4,0.7,0.4,1.1c0,0.6-0.2,1.2-0.7,1.6s-1,0.7-1.7,0.7c-0.6,0-1.2-0.2-1.6-0.6
			C134.8,546.4,134.6,545.9,134.5,545.3z"/>
		<path class="st3" d="M140.7,543.3V542h1.4v1.4H140.7z M140.7,547.2v-1.4h1.4v1.4H140.7z"/>
		<path class="st3" d="M143.4,545.3l1.3-0.2c0,0.3,0.2,0.6,0.3,0.8s0.4,0.3,0.7,0.3c0.3,0,0.5-0.1,0.7-0.3s0.3-0.5,0.3-0.9
			c0-0.3-0.1-0.6-0.3-0.8s-0.4-0.3-0.7-0.3c-0.2,0-0.4,0-0.6,0.1l0.2-1.1c0.4,0,0.7-0.1,0.8-0.2c0.2-0.2,0.3-0.4,0.3-0.7
			c0-0.2-0.1-0.4-0.2-0.6s-0.3-0.2-0.6-0.2c-0.2,0-0.4,0.1-0.6,0.2s-0.3,0.4-0.3,0.7l-1.3-0.2c0.1-0.4,0.2-0.8,0.4-1
			c0.2-0.3,0.4-0.5,0.7-0.6c0.3-0.1,0.7-0.2,1.1-0.2c0.7,0,1.2,0.2,1.6,0.6c0.3,0.4,0.5,0.7,0.5,1.2c0,0.6-0.3,1.1-1,1.5
			c0.4,0.1,0.7,0.3,1,0.6s0.4,0.7,0.4,1.1c0,0.6-0.2,1.2-0.7,1.6s-1,0.7-1.7,0.7c-0.6,0-1.2-0.2-1.6-0.6
			C143.7,546.4,143.5,545.9,143.4,545.3z"/>
		<path class="st3" d="M151.3,540c0.7,0,1.2,0.2,1.6,0.7c0.5,0.6,0.7,1.6,0.7,2.9c0,1.4-0.2,2.3-0.7,2.9c-0.4,0.5-0.9,0.7-1.6,0.7
			c-0.7,0-1.3-0.3-1.7-0.8c-0.4-0.5-0.6-1.5-0.6-2.9c0-1.3,0.2-2.3,0.7-2.9C150.1,540.2,150.6,540,151.3,540z M151.3,541.1
			c-0.2,0-0.3,0.1-0.4,0.2c-0.1,0.1-0.2,0.3-0.3,0.6c-0.1,0.4-0.1,1-0.1,1.8s0,1.4,0.1,1.7c0.1,0.3,0.2,0.5,0.3,0.6s0.3,0.2,0.4,0.2
			s0.3-0.1,0.4-0.2c0.1-0.1,0.2-0.3,0.3-0.6c0.1-0.4,0.1-0.9,0.1-1.8s0-1.4-0.1-1.7c-0.1-0.3-0.2-0.5-0.3-0.6
			C151.6,541.2,151.5,541.1,151.3,541.1z"/>
		<path class="st3" d="M154.8,542h1.3v0.8c0.2-0.3,0.4-0.5,0.7-0.6s0.6-0.2,0.9-0.2c0.6,0,1.1,0.2,1.5,0.7s0.6,1.1,0.6,2
			c0,0.9-0.2,1.5-0.6,2c-0.4,0.5-0.9,0.7-1.5,0.7c-0.3,0-0.5-0.1-0.8-0.2s-0.5-0.3-0.7-0.6v2.6h-1.4V542z M156.2,544.5
			c0,0.6,0.1,1,0.3,1.3c0.2,0.3,0.5,0.4,0.8,0.4c0.3,0,0.6-0.1,0.8-0.4c0.2-0.3,0.3-0.7,0.3-1.3c0-0.5-0.1-0.9-0.3-1.2
			s-0.5-0.4-0.8-0.4c-0.3,0-0.6,0.1-0.8,0.4C156.3,543.6,156.2,544,156.2,544.5z"/>
		<path class="st3" d="M160.9,542h1.3v0.7c0.5-0.5,1-0.8,1.6-0.8c0.3,0,0.6,0.1,0.9,0.2s0.4,0.3,0.6,0.6c0.2-0.3,0.5-0.5,0.7-0.6
			s0.5-0.2,0.8-0.2c0.4,0,0.7,0.1,1,0.2c0.3,0.2,0.5,0.4,0.6,0.7c0.1,0.2,0.1,0.6,0.1,1.1v3.3h-1.4v-3c0-0.5,0-0.8-0.1-1
			c-0.1-0.2-0.3-0.3-0.6-0.3c-0.2,0-0.4,0.1-0.5,0.2s-0.3,0.3-0.4,0.5c-0.1,0.2-0.1,0.6-0.1,1.1v2.5H164v-2.8c0-0.5,0-0.8-0.1-1
			s-0.1-0.3-0.2-0.3s-0.2-0.1-0.4-0.1c-0.2,0-0.4,0.1-0.6,0.2s-0.3,0.3-0.4,0.5s-0.1,0.6-0.1,1.1v2.5h-1.4V542z"/>
		<path class="st3" d="M88,556.3v0.8h-4.7c0-0.2,0-0.4,0.1-0.6c0.1-0.3,0.3-0.6,0.6-1s0.6-0.7,1.1-1.1c0.8-0.6,1.3-1.1,1.6-1.5
			c0.3-0.4,0.4-0.7,0.4-1.1c0-0.3-0.1-0.6-0.4-0.9c-0.2-0.2-0.6-0.4-1-0.4c-0.4,0-0.8,0.1-1,0.4s-0.4,0.6-0.4,1.1l-0.9-0.1
			c0.1-0.7,0.3-1.2,0.7-1.5c0.4-0.4,0.9-0.5,1.6-0.5c0.7,0,1.2,0.2,1.6,0.6s0.6,0.9,0.6,1.4c0,0.3-0.1,0.6-0.2,0.8s-0.3,0.6-0.6,0.9
			s-0.7,0.7-1.4,1.3c-0.5,0.4-0.9,0.7-1,0.9c-0.1,0.2-0.3,0.3-0.4,0.5H88z"/>
		<path class="st3" d="M93.6,556.3v0.8h-4.7c0-0.2,0-0.4,0.1-0.6c0.1-0.3,0.3-0.6,0.6-1s0.6-0.7,1.1-1.1c0.8-0.6,1.3-1.1,1.6-1.5
			c0.3-0.4,0.4-0.7,0.4-1.1c0-0.3-0.1-0.6-0.4-0.9c-0.2-0.2-0.6-0.4-1-0.4c-0.4,0-0.8,0.1-1,0.4s-0.4,0.6-0.4,1.1L89,552
			c0.1-0.7,0.3-1.2,0.7-1.5c0.4-0.4,0.9-0.5,1.6-0.5c0.7,0,1.2,0.2,1.6,0.6s0.6,0.9,0.6,1.4c0,0.3-0.1,0.6-0.2,0.8s-0.3,0.6-0.6,0.9
			s-0.7,0.7-1.4,1.3c-0.5,0.4-0.9,0.7-1,0.9c-0.1,0.2-0.3,0.3-0.4,0.5H93.6z"/>
		<path class="st3" d="M97.9,557.2H97v-5.6c-0.2,0.2-0.5,0.4-0.8,0.6s-0.7,0.4-0.9,0.5v-0.8c0.5-0.2,0.9-0.5,1.3-0.8s0.6-0.6,0.8-1
			h0.6V557.2z"/>
		<path class="st3" d="M108.7,556.4c0.4,0.3,0.8,0.5,1.2,0.7l-0.3,0.7c-0.5-0.2-1-0.5-1.5-0.9c-0.5,0.3-1.1,0.4-1.8,0.4
			c-0.6,0-1.2-0.2-1.8-0.5s-0.9-0.8-1.2-1.3s-0.4-1.2-0.4-1.9c0-0.7,0.1-1.3,0.4-1.9s0.7-1,1.2-1.3s1.1-0.5,1.8-0.5
			c0.7,0,1.3,0.2,1.8,0.5c0.5,0.3,0.9,0.8,1.2,1.3c0.3,0.6,0.4,1.2,0.4,1.9c0,0.6-0.1,1.1-0.3,1.6C109.3,555.6,109,556,108.7,556.4z
			 M106.6,555.2c0.5,0.2,1,0.4,1.4,0.7c0.6-0.5,0.8-1.3,0.8-2.3c0-0.6-0.1-1.1-0.3-1.5s-0.5-0.8-0.9-1c-0.4-0.2-0.8-0.4-1.3-0.4
			c-0.7,0-1.3,0.2-1.8,0.7c-0.5,0.5-0.7,1.2-0.7,2.2c0,0.9,0.2,1.6,0.7,2.1s1,0.7,1.8,0.7c0.3,0,0.7-0.1,1-0.2
			c-0.3-0.2-0.6-0.3-0.9-0.4L106.6,555.2z"/>
		<path class="st3" d="M114.3,557.2v-0.8c-0.4,0.6-1,0.9-1.6,0.9c-0.3,0-0.6-0.1-0.9-0.2s-0.5-0.3-0.6-0.4c-0.1-0.2-0.2-0.4-0.3-0.7
			c0-0.2-0.1-0.4-0.1-0.8V552h0.9v2.9c0,0.5,0,0.8,0.1,0.9c0.1,0.2,0.2,0.4,0.4,0.5c0.2,0.1,0.4,0.2,0.7,0.2s0.5-0.1,0.7-0.2
			c0.2-0.1,0.4-0.3,0.5-0.6c0.1-0.2,0.1-0.6,0.1-1V552h0.9v5.2H114.3z"/>
		<path class="st3" d="M120,555.5l0.9,0.1c-0.1,0.5-0.4,0.9-0.8,1.2s-0.9,0.4-1.5,0.4c-0.8,0-1.4-0.2-1.8-0.7
			c-0.4-0.5-0.7-1.1-0.7-2c0-0.9,0.2-1.5,0.7-2s1-0.7,1.7-0.7c0.7,0,1.3,0.2,1.7,0.7s0.7,1.1,0.7,2c0,0.1,0,0.1,0,0.2h-3.9
			c0,0.6,0.2,1,0.5,1.3s0.7,0.5,1.1,0.5c0.3,0,0.6-0.1,0.8-0.3S119.9,555.9,120,555.5z M117.1,554.1h2.9c0-0.4-0.1-0.8-0.3-1
			c-0.3-0.3-0.6-0.5-1.1-0.5c-0.4,0-0.7,0.1-1,0.4S117.2,553.6,117.1,554.1z"/>
		<path class="st3" d="M125.6,555.5l0.9,0.1c-0.1,0.5-0.4,0.9-0.8,1.2s-0.9,0.4-1.5,0.4c-0.8,0-1.4-0.2-1.8-0.7
			c-0.4-0.5-0.7-1.1-0.7-2c0-0.9,0.2-1.5,0.7-2s1-0.7,1.7-0.7c0.7,0,1.3,0.2,1.7,0.7s0.7,1.1,0.7,2c0,0.1,0,0.1,0,0.2h-3.9
			c0,0.6,0.2,1,0.5,1.3s0.7,0.5,1.1,0.5c0.3,0,0.6-0.1,0.8-0.3S125.4,555.9,125.6,555.5z M122.7,554.1h2.9c0-0.4-0.1-0.8-0.3-1
			c-0.3-0.3-0.6-0.5-1.1-0.5c-0.4,0-0.7,0.1-1,0.4S122.7,553.6,122.7,554.1z"/>
		<path class="st3" d="M127.6,557.2V552h0.8v0.7c0.4-0.6,0.9-0.9,1.7-0.9c0.3,0,0.6,0.1,0.9,0.2c0.3,0.1,0.5,0.3,0.6,0.4
			s0.2,0.4,0.3,0.6c0,0.2,0,0.4,0,0.9v3.2h-0.9V554c0-0.4,0-0.6-0.1-0.8c-0.1-0.2-0.2-0.3-0.4-0.4c-0.2-0.1-0.4-0.2-0.6-0.2
			c-0.4,0-0.7,0.1-1,0.4s-0.4,0.7-0.4,1.4v2.8H127.6z"/>
		<path class="st3" d="M135.7,554.9l0.9-0.1c0,0.4,0.1,0.7,0.3,0.9c0.2,0.2,0.4,0.4,0.7,0.6c0.3,0.1,0.7,0.2,1.1,0.2
			c0.4,0,0.7-0.1,1-0.2s0.5-0.3,0.6-0.4c0.1-0.2,0.2-0.4,0.2-0.6c0-0.2-0.1-0.4-0.2-0.6c-0.1-0.2-0.3-0.3-0.6-0.4
			c-0.2-0.1-0.6-0.2-1.3-0.3c-0.7-0.2-1.1-0.3-1.4-0.4c-0.3-0.2-0.6-0.4-0.8-0.7c-0.2-0.3-0.3-0.6-0.3-0.9c0-0.4,0.1-0.7,0.3-1
			c0.2-0.3,0.5-0.6,0.9-0.7s0.8-0.2,1.3-0.2c0.5,0,1,0.1,1.4,0.3c0.4,0.2,0.7,0.4,0.9,0.8s0.3,0.7,0.4,1.1l-0.9,0.1
			c0-0.5-0.2-0.8-0.5-1s-0.7-0.3-1.2-0.3c-0.6,0-1,0.1-1.3,0.3c-0.3,0.2-0.4,0.5-0.4,0.8c0,0.3,0.1,0.5,0.3,0.6
			c0.2,0.2,0.7,0.3,1.4,0.5c0.8,0.2,1.3,0.3,1.6,0.5c0.4,0.2,0.7,0.4,0.9,0.7c0.2,0.3,0.3,0.6,0.3,1c0,0.4-0.1,0.7-0.3,1.1
			c-0.2,0.3-0.5,0.6-0.9,0.8c-0.4,0.2-0.9,0.3-1.4,0.3c-0.6,0-1.2-0.1-1.6-0.3s-0.8-0.5-1-0.9C135.9,555.8,135.7,555.3,135.7,554.9z
			"/>
		<path class="st3" d="M144.5,556.4l0.1,0.8c-0.2,0.1-0.5,0.1-0.7,0.1c-0.3,0-0.6-0.1-0.7-0.2s-0.3-0.2-0.4-0.4
			c-0.1-0.2-0.1-0.5-0.1-1v-3h-0.6V552h0.6v-1.3l0.9-0.5v1.8h0.9v0.7h-0.9v3c0,0.3,0,0.4,0,0.5s0.1,0.1,0.2,0.2s0.2,0.1,0.3,0.1
			C144.2,556.4,144.4,556.4,144.5,556.4z"/>
		<path class="st3" d="M145.6,557.2v-1h1v1c0,0.4-0.1,0.7-0.2,0.9c-0.1,0.2-0.3,0.4-0.6,0.5l-0.2-0.4c0.2-0.1,0.3-0.2,0.4-0.4
			c0.1-0.2,0.1-0.4,0.1-0.7H145.6z"/>
		<path class="st3" d="M151,557.2V550h1.4l1.7,5.1c0.2,0.5,0.3,0.8,0.3,1.1c0.1-0.3,0.2-0.6,0.4-1.1l1.7-5h1.3v7.2h-0.9v-6l-2.1,6
			H154l-2.1-6.1v6.1H151z"/>
		<path class="st3" d="M162.8,555.5l0.9,0.1c-0.1,0.5-0.4,0.9-0.8,1.2s-0.9,0.4-1.5,0.4c-0.8,0-1.4-0.2-1.8-0.7
			c-0.4-0.5-0.7-1.1-0.7-2c0-0.9,0.2-1.5,0.7-2s1-0.7,1.7-0.7c0.7,0,1.3,0.2,1.7,0.7s0.7,1.1,0.7,2c0,0.1,0,0.1,0,0.2h-3.9
			c0,0.6,0.2,1,0.5,1.3s0.7,0.5,1.1,0.5c0.3,0,0.6-0.1,0.8-0.3S162.7,555.9,162.8,555.5z M159.9,554.1h2.9c0-0.4-0.1-0.8-0.3-1
			c-0.3-0.3-0.6-0.5-1.1-0.5c-0.4,0-0.7,0.1-1,0.4S160,553.6,159.9,554.1z"/>
		<path class="st3" d="M164.8,557.2V550h0.9v7.2H164.8z"/>
		<path class="st3" d="M167.9,557.2H167V550h0.9v2.6c0.4-0.5,0.8-0.7,1.4-0.7c0.3,0,0.6,0.1,0.9,0.2c0.3,0.1,0.5,0.3,0.7,0.5
			c0.2,0.2,0.3,0.5,0.4,0.8s0.2,0.7,0.2,1.1c0,0.9-0.2,1.6-0.7,2.1s-1,0.7-1.6,0.7c-0.6,0-1.1-0.3-1.4-0.8V557.2z M167.8,554.5
			c0,0.6,0.1,1.1,0.3,1.3c0.3,0.5,0.7,0.7,1.1,0.7c0.4,0,0.7-0.2,1-0.5c0.3-0.3,0.4-0.8,0.4-1.5c0-0.7-0.1-1.2-0.4-1.5
			s-0.6-0.5-1-0.5c-0.4,0-0.7,0.2-1,0.5C168,553.4,167.8,553.9,167.8,554.5z"/>
		<path class="st3" d="M172.3,554.6c0-1,0.3-1.7,0.8-2.1c0.4-0.4,1-0.6,1.6-0.6c0.7,0,1.3,0.2,1.7,0.7c0.5,0.5,0.7,1.1,0.7,1.9
			c0,0.7-0.1,1.2-0.3,1.6c-0.2,0.4-0.5,0.7-0.9,0.9s-0.8,0.3-1.3,0.3c-0.7,0-1.3-0.2-1.8-0.7S172.3,555.4,172.3,554.6z M173.2,554.6
			c0,0.7,0.1,1.2,0.4,1.5c0.3,0.3,0.7,0.5,1.1,0.5c0.4,0,0.8-0.2,1.1-0.5s0.4-0.8,0.4-1.5c0-0.6-0.1-1.1-0.4-1.5
			c-0.3-0.3-0.7-0.5-1.1-0.5c-0.4,0-0.8,0.2-1.1,0.5S173.2,553.9,173.2,554.6z"/>
		<path class="st3" d="M181.6,557.2v-0.8c-0.4,0.6-1,0.9-1.6,0.9c-0.3,0-0.6-0.1-0.9-0.2s-0.5-0.3-0.6-0.4c-0.1-0.2-0.2-0.4-0.3-0.7
			c0-0.2-0.1-0.4-0.1-0.8V552h0.9v2.9c0,0.5,0,0.8,0.1,0.9c0.1,0.2,0.2,0.4,0.4,0.5c0.2,0.1,0.4,0.2,0.7,0.2s0.5-0.1,0.7-0.2
			c0.2-0.1,0.4-0.3,0.5-0.6c0.1-0.2,0.1-0.6,0.1-1V552h0.9v5.2H181.6z"/>
		<path class="st3" d="M183.7,557.2V552h0.8v0.8c0.2-0.4,0.4-0.6,0.6-0.7s0.4-0.2,0.6-0.2c0.3,0,0.6,0.1,0.9,0.3l-0.3,0.8
			c-0.2-0.1-0.4-0.2-0.6-0.2c-0.2,0-0.4,0.1-0.5,0.2c-0.2,0.1-0.3,0.3-0.3,0.5c-0.1,0.3-0.1,0.7-0.1,1v2.7H183.7z"/>
		<path class="st3" d="M187.1,557.2V552h0.8v0.7c0.4-0.6,0.9-0.9,1.7-0.9c0.3,0,0.6,0.1,0.9,0.2c0.3,0.1,0.5,0.3,0.6,0.4
			c0.1,0.2,0.2,0.4,0.3,0.6c0,0.2,0,0.4,0,0.9v3.2h-0.9V554c0-0.4,0-0.6-0.1-0.8c-0.1-0.2-0.2-0.3-0.4-0.4c-0.2-0.1-0.4-0.2-0.6-0.2
			c-0.4,0-0.7,0.1-1,0.4c-0.3,0.2-0.4,0.7-0.4,1.4v2.8H187.1z"/>
		<path class="st3" d="M196.2,555.5l0.9,0.1c-0.1,0.5-0.4,0.9-0.8,1.2c-0.4,0.3-0.9,0.4-1.5,0.4c-0.8,0-1.4-0.2-1.8-0.7
			c-0.4-0.5-0.7-1.1-0.7-2c0-0.9,0.2-1.5,0.7-2s1-0.7,1.7-0.7c0.7,0,1.3,0.2,1.7,0.7s0.7,1.1,0.7,2c0,0.1,0,0.1,0,0.2h-3.9
			c0,0.6,0.2,1,0.5,1.3c0.3,0.3,0.7,0.5,1.1,0.5c0.3,0,0.6-0.1,0.8-0.3C195.9,556.1,196,555.9,196.2,555.5z M193.3,554.1h2.9
			c0-0.4-0.1-0.8-0.3-1c-0.3-0.3-0.6-0.5-1.1-0.5c-0.4,0-0.7,0.1-1,0.4C193.5,553.3,193.3,553.6,193.3,554.1z"/>
	</g>
</g>
<g id="text_2">
	<g>
		<path class="st3" d="M27.2,23.9v1.3h-4.8c0.1-0.5,0.2-0.9,0.5-1.4s0.8-1,1.5-1.7c0.6-0.6,1-1,1.1-1.2c0.2-0.3,0.3-0.6,0.3-0.8
			c0-0.3-0.1-0.5-0.2-0.7s-0.4-0.2-0.7-0.2c-0.3,0-0.5,0.1-0.7,0.3s-0.3,0.5-0.3,0.9l-1.4-0.1c0.1-0.8,0.3-1.3,0.8-1.6
			s1-0.5,1.6-0.5c0.7,0,1.3,0.2,1.7,0.6s0.6,0.9,0.6,1.4c0,0.3-0.1,0.6-0.2,0.9s-0.3,0.6-0.5,0.9c-0.2,0.2-0.5,0.5-0.9,0.9
			s-0.7,0.7-0.8,0.8s-0.2,0.3-0.3,0.4H27.2z"/>
		<path class="st3" d="M32.7,23.9v1.3h-4.8c0.1-0.5,0.2-0.9,0.5-1.4s0.8-1,1.5-1.7c0.6-0.6,1-1,1.1-1.2c0.2-0.3,0.3-0.6,0.3-0.8
			c0-0.3-0.1-0.5-0.2-0.7s-0.4-0.2-0.7-0.2c-0.3,0-0.5,0.1-0.7,0.3s-0.3,0.5-0.3,0.9l-1.4-0.1c0.1-0.8,0.3-1.3,0.8-1.6
			s1-0.5,1.6-0.5c0.7,0,1.3,0.2,1.7,0.6s0.6,0.9,0.6,1.4c0,0.3-0.1,0.6-0.2,0.9s-0.3,0.6-0.5,0.9c-0.2,0.2-0.5,0.5-0.9,0.9
			s-0.7,0.7-0.8,0.8s-0.2,0.3-0.3,0.4H32.7z"/>
		<path class="st3" d="M42.8,25.2h-1.6l-0.6-1.6h-2.9l-0.6,1.6h-1.5l2.8-7.2H40L42.8,25.2z M40.2,22.3l-1-2.7l-1,2.7H40.2z"/>
		<path class="st3" d="M43.6,20h1.3v0.8c0.2-0.3,0.4-0.5,0.7-0.6s0.6-0.2,0.9-0.2c0.6,0,1.1,0.2,1.5,0.7s0.6,1.1,0.6,2
			c0,0.9-0.2,1.5-0.6,2s-0.9,0.7-1.5,0.7c-0.3,0-0.5-0.1-0.8-0.2s-0.5-0.3-0.7-0.6v2.6h-1.4V20z M44.9,22.5c0,0.6,0.1,1,0.3,1.3
			s0.5,0.4,0.8,0.4c0.3,0,0.6-0.1,0.8-0.4s0.3-0.7,0.3-1.3c0-0.5-0.1-0.9-0.3-1.2s-0.5-0.4-0.8-0.4c-0.3,0-0.6,0.1-0.8,0.4
			S44.9,22,44.9,22.5z"/>
		<path class="st3" d="M51,25.2h-1.4V20h1.3v0.7c0.2-0.3,0.4-0.6,0.6-0.7s0.4-0.2,0.6-0.2c0.3,0,0.6,0.1,0.9,0.3l-0.4,1.2
			c-0.2-0.1-0.4-0.2-0.6-0.2c-0.2,0-0.4,0.1-0.5,0.2s-0.2,0.3-0.3,0.6S51,22.7,51,23.6V25.2z"/>
		<path class="st3" d="M53.6,19.3V18H55v1.3H53.6z M53.6,25.2V20H55v5.2H53.6z"/>
		<path class="st3" d="M56.4,25.2V18h1.4v7.2H56.4z"/>
		<path class="st3" d="M66.3,23.9v1.3h-4.8c0.1-0.5,0.2-0.9,0.5-1.4s0.8-1,1.5-1.7c0.6-0.6,1-1,1.1-1.2c0.2-0.3,0.3-0.6,0.3-0.8
			c0-0.3-0.1-0.5-0.2-0.7s-0.4-0.2-0.7-0.2c-0.3,0-0.5,0.1-0.7,0.3S63,19.8,63,20.2l-1.4-0.1c0.1-0.8,0.3-1.3,0.8-1.6s1-0.5,1.6-0.5
			c0.7,0,1.3,0.2,1.7,0.6s0.6,0.9,0.6,1.4c0,0.3-0.1,0.6-0.2,0.9s-0.3,0.6-0.5,0.9c-0.2,0.2-0.5,0.5-0.9,0.9s-0.7,0.7-0.8,0.8
			s-0.2,0.3-0.3,0.4H66.3z"/>
		<path class="st3" d="M69.5,18c0.7,0,1.2,0.2,1.6,0.7c0.5,0.6,0.7,1.6,0.7,2.9c0,1.4-0.2,2.3-0.7,2.9c-0.4,0.5-0.9,0.7-1.6,0.7
			c-0.7,0-1.3-0.3-1.7-0.8s-0.6-1.5-0.6-2.9c0-1.3,0.2-2.3,0.7-2.9C68.3,18.2,68.8,18,69.5,18z M69.5,19.1c-0.2,0-0.3,0.1-0.4,0.2
			s-0.2,0.3-0.3,0.6c-0.1,0.4-0.1,1-0.1,1.8s0,1.4,0.1,1.7s0.2,0.5,0.3,0.6s0.3,0.2,0.4,0.2s0.3-0.1,0.4-0.2s0.2-0.3,0.3-0.6
			c0.1-0.4,0.1-0.9,0.1-1.8s0-1.4-0.1-1.7s-0.2-0.5-0.3-0.6S69.7,19.1,69.5,19.1z"/>
		<path class="st3" d="M77.4,23.9v1.3h-4.8c0.1-0.5,0.2-0.9,0.5-1.4s0.8-1,1.5-1.7c0.6-0.6,1-1,1.1-1.2c0.2-0.3,0.3-0.6,0.3-0.8
			c0-0.3-0.1-0.5-0.2-0.7s-0.4-0.2-0.7-0.2c-0.3,0-0.5,0.1-0.7,0.3s-0.3,0.5-0.3,0.9l-1.4-0.1c0.1-0.8,0.3-1.3,0.8-1.6
			s1-0.5,1.6-0.5c0.7,0,1.3,0.2,1.7,0.6s0.6,0.9,0.6,1.4c0,0.3-0.1,0.6-0.2,0.9s-0.3,0.6-0.5,0.9c-0.2,0.2-0.5,0.5-0.9,0.9
			s-0.7,0.7-0.8,0.8s-0.2,0.3-0.3,0.4H77.4z"/>
		<path class="st3" d="M78.3,23.3l1.3-0.2c0,0.3,0.2,0.6,0.3,0.8s0.4,0.3,0.7,0.3c0.3,0,0.5-0.1,0.7-0.3s0.3-0.5,0.3-0.9
			c0-0.3-0.1-0.6-0.3-0.8s-0.4-0.3-0.7-0.3c-0.2,0-0.4,0-0.6,0.1l0.2-1.1c0.4,0,0.7-0.1,0.8-0.2s0.3-0.4,0.3-0.7
			c0-0.2-0.1-0.4-0.2-0.6s-0.3-0.2-0.6-0.2c-0.2,0-0.4,0.1-0.6,0.2s-0.3,0.4-0.3,0.7l-1.3-0.2c0.1-0.4,0.2-0.8,0.4-1
			s0.4-0.5,0.7-0.6s0.7-0.2,1.1-0.2c0.7,0,1.2,0.2,1.6,0.6c0.3,0.4,0.5,0.7,0.5,1.2c0,0.6-0.3,1.1-1,1.5c0.4,0.1,0.7,0.3,1,0.6
			S83,22.6,83,23c0,0.6-0.2,1.2-0.7,1.6s-1,0.7-1.7,0.7c-0.6,0-1.2-0.2-1.6-0.6S78.3,23.9,78.3,23.3z"/>
		<path class="st3" d="M26.9,42.8l1.3,0.4c-0.2,0.7-0.5,1.2-1,1.6c-0.4,0.3-1,0.5-1.7,0.5c-0.9,0-1.6-0.3-2.1-0.9
			c-0.6-0.6-0.8-1.4-0.8-2.4c0-1.1,0.3-1.9,0.8-2.5c0.6-0.6,1.3-0.9,2.2-0.9c0.8,0,1.4,0.2,1.9,0.7c0.3,0.3,0.5,0.7,0.7,1.2
			l-1.3,0.3c-0.1-0.3-0.2-0.6-0.5-0.8c-0.2-0.2-0.5-0.3-0.9-0.3c-0.5,0-0.9,0.2-1.2,0.5c-0.3,0.3-0.4,0.9-0.4,1.7
			c0,0.8,0.1,1.4,0.4,1.7s0.7,0.5,1.1,0.5c0.3,0,0.6-0.1,0.9-0.3S26.8,43.3,26.9,42.8z"/>
		<path class="st3" d="M32,43.7l1.2,0.2c-0.2,0.5-0.4,0.8-0.7,1c-0.3,0.2-0.8,0.4-1.3,0.4c-0.8,0-1.4-0.3-1.8-0.8
			c-0.3-0.4-0.5-1-0.5-1.6c0-0.8,0.2-1.4,0.6-1.8s0.9-0.7,1.5-0.7c0.7,0,1.2,0.2,1.6,0.7c0.4,0.5,0.6,1.2,0.6,2.1h-3.1
			c0,0.4,0.1,0.7,0.3,0.9c0.2,0.2,0.4,0.3,0.7,0.3c0.2,0,0.4-0.1,0.5-0.2S31.9,43.9,32,43.7z M32,42.4c0-0.4-0.1-0.6-0.3-0.8
			c-0.2-0.2-0.4-0.3-0.6-0.3c-0.3,0-0.5,0.1-0.7,0.3s-0.3,0.5-0.3,0.8H32z"/>
		<path class="st3" d="M35.5,45.2h-1.2v-4.7h1.1v0.7c0.2-0.3,0.4-0.5,0.5-0.6s0.3-0.1,0.5-0.1c0.3,0,0.6,0.1,0.8,0.2l-0.4,1.1
			c-0.2-0.1-0.4-0.2-0.6-0.2c-0.2,0-0.3,0-0.4,0.1c-0.1,0.1-0.2,0.3-0.3,0.5c-0.1,0.2-0.1,0.8-0.1,1.6V45.2z"/>
		<path class="st3" d="M40.5,43.7l1.2,0.2c-0.2,0.5-0.4,0.8-0.7,1c-0.3,0.2-0.8,0.4-1.3,0.4c-0.8,0-1.4-0.3-1.8-0.8
			c-0.3-0.4-0.5-1-0.5-1.6c0-0.8,0.2-1.4,0.6-1.8s0.9-0.7,1.5-0.7c0.7,0,1.2,0.2,1.6,0.7c0.4,0.5,0.6,1.2,0.6,2.1h-3.1
			c0,0.4,0.1,0.7,0.3,0.9c0.2,0.2,0.4,0.3,0.7,0.3c0.2,0,0.4-0.1,0.5-0.2S40.4,43.9,40.5,43.7z M40.6,42.4c0-0.4-0.1-0.6-0.3-0.8
			c-0.2-0.2-0.4-0.3-0.6-0.3c-0.3,0-0.5,0.1-0.7,0.3s-0.3,0.5-0.3,0.8H40.6z"/>
		<path class="st3" d="M42.7,40.5h1.1v0.6c0.4-0.5,0.9-0.7,1.5-0.7c0.3,0,0.6,0.1,0.8,0.2s0.4,0.3,0.5,0.6c0.2-0.2,0.4-0.4,0.7-0.6
			s0.5-0.2,0.8-0.2c0.3,0,0.6,0.1,0.9,0.2s0.4,0.3,0.5,0.6c0.1,0.2,0.1,0.5,0.1,1v3h-1.2v-2.7c0-0.5,0-0.8-0.1-0.9
			c-0.1-0.2-0.3-0.3-0.5-0.3c-0.2,0-0.3,0.1-0.5,0.2s-0.3,0.3-0.3,0.5c-0.1,0.2-0.1,0.5-0.1,1v2.2h-1.2v-2.6c0-0.5,0-0.7-0.1-0.9
			s-0.1-0.2-0.2-0.3c-0.1-0.1-0.2-0.1-0.4-0.1c-0.2,0-0.4,0.1-0.5,0.2s-0.3,0.3-0.3,0.4c-0.1,0.2-0.1,0.5-0.1,1v2.3h-1.2V40.5z"/>
		<path class="st3" d="M50.5,42.8c0-0.4,0.1-0.8,0.3-1.2s0.5-0.7,0.9-0.9s0.8-0.3,1.2-0.3c0.7,0,1.3,0.2,1.7,0.7
			c0.5,0.5,0.7,1,0.7,1.7c0,0.7-0.2,1.3-0.7,1.8s-1,0.7-1.7,0.7c-0.4,0-0.8-0.1-1.2-0.3s-0.7-0.5-0.9-0.9
			C50.6,43.8,50.5,43.3,50.5,42.8z M51.8,42.8c0,0.5,0.1,0.8,0.3,1.1s0.5,0.4,0.8,0.4s0.6-0.1,0.8-0.4s0.3-0.6,0.3-1.1
			c0-0.5-0.1-0.8-0.3-1.1s-0.5-0.4-0.8-0.4s-0.6,0.1-0.8,0.4S51.8,42.4,51.8,42.8z"/>
		<path class="st3" d="M60.5,45.2h-1.2v-2.4c0-0.5,0-0.8-0.1-1s-0.1-0.3-0.3-0.3c-0.1-0.1-0.3-0.1-0.4-0.1c-0.2,0-0.4,0.1-0.6,0.2
			s-0.3,0.3-0.3,0.5c-0.1,0.2-0.1,0.6-0.1,1.1v2.1h-1.2v-4.7h1.1v0.7c0.4-0.5,0.9-0.8,1.5-0.8c0.3,0,0.5,0,0.7,0.1s0.4,0.2,0.5,0.4
			s0.2,0.3,0.2,0.5c0,0.2,0.1,0.5,0.1,0.8V45.2z"/>
		<path class="st3" d="M61.2,40.5h1.3l1.1,3.3l1.1-3.3H66L64.4,45l-0.3,0.8c-0.1,0.3-0.2,0.5-0.3,0.6c-0.1,0.1-0.2,0.3-0.3,0.3
			c-0.1,0.1-0.3,0.2-0.5,0.2c-0.2,0-0.4,0.1-0.6,0.1c-0.2,0-0.5,0-0.7-0.1l-0.1-1c0.2,0,0.4,0.1,0.5,0.1c0.3,0,0.5-0.1,0.6-0.3
			c0.1-0.2,0.2-0.4,0.3-0.6L61.2,40.5z"/>
		<path class="st3" d="M73.2,44v1.1h-4.3c0-0.4,0.2-0.8,0.4-1.2s0.7-0.9,1.4-1.5c0.6-0.5,0.9-0.9,1-1.1c0.2-0.3,0.3-0.5,0.3-0.8
			c0-0.3-0.1-0.5-0.2-0.6c-0.1-0.1-0.4-0.2-0.6-0.2c-0.3,0-0.5,0.1-0.6,0.2s-0.2,0.4-0.3,0.8L69,40.6c0.1-0.7,0.3-1.2,0.7-1.5
			s0.9-0.4,1.5-0.4c0.6,0,1.1,0.2,1.5,0.5s0.5,0.8,0.5,1.3c0,0.3-0.1,0.6-0.2,0.8c-0.1,0.3-0.3,0.5-0.5,0.8
			c-0.1,0.2-0.4,0.5-0.8,0.8s-0.6,0.6-0.7,0.7c-0.1,0.1-0.2,0.2-0.3,0.3H73.2z"/>
		<path class="st3" d="M74.3,40.5h1.2v0.7c0.1-0.2,0.4-0.4,0.6-0.6s0.5-0.2,0.8-0.2c0.5,0,1,0.2,1.4,0.6s0.6,1,0.6,1.8
			c0,0.8-0.2,1.4-0.6,1.8c-0.4,0.4-0.8,0.6-1.4,0.6c-0.3,0-0.5-0.1-0.7-0.2s-0.4-0.3-0.7-0.5v2.4h-1.2V40.5z M75.5,42.7
			c0,0.5,0.1,0.9,0.3,1.2c0.2,0.2,0.5,0.4,0.8,0.4c0.3,0,0.5-0.1,0.7-0.3c0.2-0.2,0.3-0.6,0.3-1.1c0-0.5-0.1-0.9-0.3-1.1
			s-0.4-0.4-0.7-0.4c-0.3,0-0.6,0.1-0.8,0.3C75.6,41.9,75.5,42.3,75.5,42.7z"/>
		<path class="st3" d="M79.7,40.5h1.1v0.6c0.4-0.5,0.9-0.7,1.5-0.7c0.3,0,0.6,0.1,0.8,0.2s0.4,0.3,0.5,0.6c0.2-0.2,0.4-0.4,0.7-0.6
			s0.5-0.2,0.8-0.2c0.3,0,0.6,0.1,0.9,0.2s0.4,0.3,0.5,0.6c0.1,0.2,0.1,0.5,0.1,1v3h-1.2v-2.7c0-0.5,0-0.8-0.1-0.9
			c-0.1-0.2-0.3-0.3-0.5-0.3c-0.2,0-0.3,0.1-0.5,0.2s-0.3,0.3-0.3,0.5c-0.1,0.2-0.1,0.5-0.1,1v2.2h-1.2v-2.6c0-0.5,0-0.7-0.1-0.9
			s-0.1-0.2-0.2-0.3c-0.1-0.1-0.2-0.1-0.4-0.1c-0.2,0-0.4,0.1-0.5,0.2s-0.3,0.3-0.3,0.4c-0.1,0.2-0.1,0.5-0.1,1v2.3h-1.2V40.5z"/>
		<path class="st3" d="M24.5,55.2v-5.7h-2.1v-0.8h5.1v0.8h-2.1v5.7H24.5z"/>
		<path class="st3" d="M28.2,55.2v-6.4H29V51c0.4-0.4,0.8-0.6,1.4-0.6c0.3,0,0.6,0.1,0.9,0.2c0.3,0.1,0.4,0.3,0.5,0.6
			c0.1,0.2,0.2,0.6,0.2,1v3h-0.8v-3c0-0.4-0.1-0.7-0.3-0.9c-0.2-0.2-0.4-0.3-0.7-0.3c-0.2,0-0.5,0.1-0.7,0.2
			c-0.2,0.1-0.4,0.3-0.4,0.5S29,52.2,29,52.6v2.6H28.2z"/>
		<path class="st3" d="M36.4,53.7l0.8,0.1c-0.1,0.5-0.4,0.8-0.7,1.1s-0.8,0.4-1.3,0.4c-0.7,0-1.2-0.2-1.6-0.6
			c-0.4-0.4-0.6-1-0.6-1.8c0-0.8,0.2-1.4,0.6-1.8s0.9-0.7,1.6-0.7c0.6,0,1.1,0.2,1.5,0.6s0.6,1,0.6,1.8c0,0,0,0.1,0,0.2h-3.5
			c0,0.5,0.2,0.9,0.4,1.2s0.6,0.4,1,0.4c0.3,0,0.5-0.1,0.7-0.2S36.3,54,36.4,53.7z M33.8,52.4h2.6c0-0.4-0.1-0.7-0.3-0.9
			c-0.3-0.3-0.6-0.5-1-0.5c-0.4,0-0.7,0.1-0.9,0.4S33.8,52,33.8,52.4z"/>
		<path class="st3" d="M39.6,55.2l2.5-6.4H43l2.6,6.4h-1l-0.8-2h-2.7l-0.7,2H39.6z M41.5,52.5h2.2L43,50.7c-0.2-0.5-0.4-1-0.5-1.3
			c-0.1,0.4-0.2,0.8-0.3,1.2L41.5,52.5z"/>
		<path class="st3" d="M46.2,55.2v-6.4H47v6.4H46.2z"/>
		<path class="st3" d="M50,54.5l0.1,0.7c-0.2,0-0.4,0.1-0.6,0.1c-0.3,0-0.5,0-0.7-0.1s-0.3-0.2-0.3-0.4s-0.1-0.5-0.1-0.9v-2.7h-0.6
			v-0.6h0.6v-1.2l0.8-0.5v1.6H50v0.6h-0.8v2.7c0,0.2,0,0.4,0,0.4s0.1,0.1,0.1,0.2c0.1,0,0.2,0.1,0.3,0.1
			C49.7,54.5,49.8,54.5,50,54.5z"/>
		<path class="st3" d="M53.8,54.6c-0.3,0.2-0.6,0.4-0.8,0.5c-0.3,0.1-0.6,0.2-0.9,0.2c-0.5,0-0.9-0.1-1.2-0.4
			c-0.3-0.2-0.4-0.6-0.4-1c0-0.2,0.1-0.4,0.2-0.6c0.1-0.2,0.2-0.3,0.4-0.5s0.4-0.2,0.6-0.3c0.2,0,0.4-0.1,0.7-0.1
			c0.6-0.1,1.1-0.2,1.4-0.3c0-0.1,0-0.2,0-0.2c0-0.3-0.1-0.5-0.2-0.7C53.3,51.1,53,51,52.6,51c-0.4,0-0.6,0.1-0.8,0.2
			s-0.3,0.4-0.4,0.7l-0.8-0.1c0.1-0.3,0.2-0.6,0.3-0.8c0.2-0.2,0.4-0.4,0.7-0.5c0.3-0.1,0.7-0.2,1.1-0.2c0.4,0,0.7,0,1,0.1
			s0.4,0.2,0.5,0.4c0.1,0.1,0.2,0.3,0.2,0.5c0,0.1,0,0.4,0,0.7v1.1c0,0.7,0,1.2,0.1,1.4c0,0.2,0.1,0.4,0.2,0.6h-0.8
			C53.9,55,53.8,54.8,53.8,54.6z M53.7,52.8c-0.3,0.1-0.7,0.2-1.3,0.3c-0.3,0-0.6,0.1-0.7,0.2s-0.2,0.1-0.3,0.3s-0.1,0.2-0.1,0.4
			c0,0.2,0.1,0.4,0.2,0.5s0.4,0.2,0.7,0.2c0.3,0,0.6-0.1,0.8-0.2s0.4-0.3,0.5-0.5c0.1-0.2,0.1-0.4,0.1-0.8V52.8z"/>
		<path class="st3" d="M55.7,55.2v-4.7h0.7v0.7c0.2-0.3,0.3-0.5,0.5-0.7c0.2-0.1,0.3-0.2,0.5-0.2c0.3,0,0.5,0.1,0.8,0.3L58,51.4
			c-0.2-0.1-0.4-0.2-0.6-0.2c-0.2,0-0.3,0.1-0.5,0.2s-0.2,0.2-0.3,0.4c-0.1,0.3-0.1,0.6-0.1,0.9v2.4H55.7z"/>
		<path class="st3" d="M61.4,55.2v-6.4H66v0.8h-3.8v2h3.6v0.8h-3.6v2.2h4v0.8H61.4z"/>
		<path class="st3" d="M67.2,55.2v-6.4H68v6.4H67.2z"/>
		<path class="st3" d="M72.4,53.7l0.8,0.1c-0.1,0.5-0.4,0.8-0.7,1.1s-0.8,0.4-1.3,0.4c-0.7,0-1.2-0.2-1.6-0.6
			c-0.4-0.4-0.6-1-0.6-1.8c0-0.8,0.2-1.4,0.6-1.8s0.9-0.7,1.6-0.7c0.6,0,1.1,0.2,1.5,0.6s0.6,1,0.6,1.8c0,0,0,0.1,0,0.2h-3.5
			c0,0.5,0.2,0.9,0.4,1.2s0.6,0.4,1,0.4c0.3,0,0.5-0.1,0.7-0.2S72.3,54,72.4,53.7z M69.8,52.4h2.6c0-0.4-0.1-0.7-0.3-0.9
			c-0.3-0.3-0.6-0.5-1-0.5c-0.4,0-0.7,0.1-0.9,0.4S69.9,52,69.8,52.4z"/>
		<path class="st3" d="M77.3,53.5l0.8,0.1c-0.1,0.5-0.3,1-0.7,1.3c-0.4,0.3-0.8,0.5-1.3,0.5c-0.6,0-1.2-0.2-1.5-0.6
			c-0.4-0.4-0.6-1-0.6-1.8c0-0.5,0.1-0.9,0.3-1.3s0.4-0.7,0.8-0.9c0.3-0.2,0.7-0.3,1.1-0.3c0.5,0,0.9,0.1,1.2,0.4s0.5,0.6,0.6,1.1
			L77.2,52c-0.1-0.3-0.2-0.5-0.4-0.7S76.4,51,76.2,51c-0.4,0-0.7,0.1-1,0.4c-0.2,0.3-0.4,0.7-0.4,1.4c0,0.6,0.1,1.1,0.4,1.4
			s0.6,0.4,0.9,0.4c0.3,0,0.6-0.1,0.8-0.3S77.2,53.8,77.3,53.5z"/>
		<path class="st3" d="M80.5,54.5l0.1,0.7c-0.2,0-0.4,0.1-0.6,0.1c-0.3,0-0.5,0-0.7-0.1s-0.3-0.2-0.3-0.4s-0.1-0.5-0.1-0.9v-2.7
			h-0.6v-0.6h0.6v-1.2l0.8-0.5v1.6h0.8v0.6h-0.8v2.7c0,0.2,0,0.4,0,0.4s0.1,0.1,0.1,0.2c0.1,0,0.2,0.1,0.3,0.1
			C80.2,54.5,80.3,54.5,80.5,54.5z"/>
		<path class="st3" d="M81.2,55.2v-4.7H82v0.7c0.2-0.3,0.3-0.5,0.5-0.7c0.2-0.1,0.3-0.2,0.5-0.2c0.3,0,0.5,0.1,0.8,0.3l-0.3,0.7
			c-0.2-0.1-0.4-0.2-0.6-0.2c-0.2,0-0.3,0.1-0.5,0.2s-0.2,0.2-0.3,0.4c-0.1,0.3-0.1,0.6-0.1,0.9v2.4H81.2z"/>
		<path class="st3" d="M84.2,49.6v-0.9H85v0.9H84.2z M84.2,55.2v-4.7H85v4.7H84.2z"/>
		<path class="st3" d="M89.3,53.5l0.8,0.1c-0.1,0.5-0.3,1-0.7,1.3c-0.4,0.3-0.8,0.5-1.3,0.5c-0.6,0-1.2-0.2-1.5-0.6
			c-0.4-0.4-0.6-1-0.6-1.8c0-0.5,0.1-0.9,0.3-1.3s0.4-0.7,0.8-0.9c0.3-0.2,0.7-0.3,1.1-0.3c0.5,0,0.9,0.1,1.2,0.4s0.5,0.6,0.6,1.1
			L89.2,52c-0.1-0.3-0.2-0.5-0.4-0.7S88.4,51,88.2,51c-0.4,0-0.7,0.1-1,0.4c-0.2,0.3-0.4,0.7-0.4,1.4c0,0.6,0.1,1.1,0.4,1.4
			s0.6,0.4,0.9,0.4c0.3,0,0.6-0.1,0.8-0.3S89.2,53.8,89.3,53.5z"/>
		<path class="st3" d="M92.7,55.3l1.9-6.7h0.6l-1.9,6.7H92.7z"/>
		<path class="st3" d="M102.2,54.4v0.8h-4.3c0-0.2,0-0.4,0.1-0.5c0.1-0.3,0.3-0.6,0.5-0.9c0.2-0.3,0.6-0.6,1-1
			c0.7-0.6,1.2-1,1.4-1.4s0.4-0.7,0.4-1c0-0.3-0.1-0.6-0.3-0.8c-0.2-0.2-0.5-0.3-0.9-0.3c-0.4,0-0.7,0.1-0.9,0.3s-0.3,0.5-0.3,0.9
			l-0.8-0.1c0.1-0.6,0.3-1.1,0.6-1.4c0.4-0.3,0.9-0.5,1.5-0.5c0.6,0,1.1,0.2,1.5,0.5s0.5,0.8,0.5,1.3c0,0.3-0.1,0.5-0.2,0.8
			s-0.3,0.5-0.5,0.8c-0.2,0.3-0.7,0.7-1.2,1.1c-0.5,0.4-0.8,0.7-0.9,0.8s-0.2,0.3-0.3,0.4H102.2z"/>
		<path class="st3" d="M103.1,53.7l0.8-0.1c0.1,0.4,0.2,0.6,0.4,0.8s0.4,0.2,0.7,0.2c0.2,0,0.5-0.1,0.6-0.2c0.2-0.1,0.3-0.3,0.5-0.4
			s0.2-0.4,0.3-0.8s0.1-0.6,0.1-1c0,0,0-0.1,0-0.2c-0.2,0.3-0.4,0.5-0.6,0.6c-0.3,0.2-0.6,0.2-0.9,0.2c-0.5,0-1-0.2-1.4-0.6
			s-0.6-0.9-0.6-1.5c0-0.7,0.2-1.2,0.6-1.6s0.9-0.6,1.4-0.6c0.4,0,0.8,0.1,1.1,0.3c0.3,0.2,0.6,0.5,0.8,1c0.2,0.4,0.3,1,0.3,1.8
			c0,0.8-0.1,1.5-0.3,2c-0.2,0.5-0.4,0.9-0.8,1.1s-0.8,0.4-1.2,0.4c-0.5,0-0.9-0.1-1.2-0.4S103.2,54.2,103.1,53.7z M106.4,50.8
			c0-0.5-0.1-0.8-0.4-1.1c-0.2-0.3-0.5-0.4-0.9-0.4c-0.4,0-0.7,0.1-0.9,0.4s-0.4,0.7-0.4,1.1c0,0.4,0.1,0.7,0.4,1
			c0.2,0.3,0.6,0.4,0.9,0.4c0.4,0,0.7-0.1,0.9-0.4C106.3,51.6,106.4,51.3,106.4,50.8z"/>
		<path class="st3" d="M108.2,53.7l0.8-0.1c0.1,0.4,0.2,0.6,0.4,0.8s0.4,0.2,0.7,0.2c0.2,0,0.5-0.1,0.6-0.2c0.2-0.1,0.3-0.3,0.5-0.4
			s0.2-0.4,0.3-0.8s0.1-0.6,0.1-1c0,0,0-0.1,0-0.2c-0.2,0.3-0.4,0.5-0.6,0.6c-0.3,0.2-0.6,0.2-0.9,0.2c-0.5,0-1-0.2-1.4-0.6
			s-0.6-0.9-0.6-1.5c0-0.7,0.2-1.2,0.6-1.6s0.9-0.6,1.4-0.6c0.4,0,0.8,0.1,1.1,0.3c0.3,0.2,0.6,0.5,0.8,1c0.2,0.4,0.3,1,0.3,1.8
			c0,0.8-0.1,1.5-0.3,2c-0.2,0.5-0.4,0.9-0.8,1.1s-0.8,0.4-1.2,0.4c-0.5,0-0.9-0.1-1.2-0.4S108.2,54.2,108.2,53.7z M111.4,50.8
			c0-0.5-0.1-0.8-0.4-1.1c-0.2-0.3-0.5-0.4-0.9-0.4c-0.4,0-0.7,0.1-0.9,0.4s-0.4,0.7-0.4,1.1c0,0.4,0.1,0.7,0.4,1
			c0.2,0.3,0.6,0.4,0.9,0.4c0.4,0,0.7-0.1,0.9-0.4C111.3,51.6,111.4,51.3,111.4,50.8z"/>
		<path class="st3" d="M115.4,53.3l0.8-0.1c0,0.5,0.1,0.8,0.3,1s0.4,0.3,0.7,0.3c0.2,0,0.4,0,0.6-0.1c0.2-0.1,0.3-0.2,0.3-0.4
			s0.1-0.4,0.1-0.8v-4.4h0.9v4.4c0,0.5-0.1,1-0.2,1.3s-0.3,0.5-0.6,0.7c-0.3,0.2-0.6,0.2-1,0.2c-0.6,0-1-0.2-1.3-0.5
			C115.6,54.5,115.4,54,115.4,53.3z"/>
		<path class="st3" d="M120,52.8c0-0.9,0.2-1.5,0.7-1.9c0.4-0.3,0.9-0.5,1.5-0.5c0.6,0,1.2,0.2,1.6,0.6s0.6,1,0.6,1.7
			c0,0.6-0.1,1.1-0.3,1.4c-0.2,0.3-0.4,0.6-0.8,0.8s-0.7,0.3-1.1,0.3c-0.7,0-1.2-0.2-1.6-0.6C120.2,54.2,120,53.6,120,52.8z
			 M120.8,52.8c0,0.6,0.1,1,0.4,1.3c0.3,0.3,0.6,0.4,1,0.4c0.4,0,0.7-0.1,1-0.4s0.4-0.8,0.4-1.4c0-0.6-0.1-1-0.4-1.3
			c-0.3-0.3-0.6-0.4-1-0.4c-0.4,0-0.7,0.1-1,0.4S120.8,52.2,120.8,52.8z"/>
		<path class="st3" d="M125.3,55.2v-6.4h0.8V51c0.4-0.4,0.8-0.6,1.4-0.6c0.3,0,0.6,0.1,0.9,0.2c0.3,0.1,0.4,0.3,0.5,0.6
			c0.1,0.2,0.2,0.6,0.2,1v3h-0.8v-3c0-0.4-0.1-0.7-0.3-0.9c-0.2-0.2-0.4-0.3-0.7-0.3c-0.2,0-0.5,0.1-0.7,0.2
			c-0.2,0.1-0.4,0.3-0.4,0.5s-0.1,0.5-0.1,0.9v2.6H125.3z"/>
		<path class="st3" d="M130.3,55.2v-4.7h0.7v0.7c0.3-0.5,0.8-0.8,1.5-0.8c0.3,0,0.5,0.1,0.8,0.2c0.2,0.1,0.4,0.2,0.5,0.4
			s0.2,0.4,0.2,0.6c0,0.1,0,0.4,0,0.8v2.9h-0.8v-2.8c0-0.3,0-0.6-0.1-0.7s-0.2-0.3-0.3-0.4c-0.2-0.1-0.3-0.1-0.6-0.1
			c-0.3,0-0.6,0.1-0.9,0.3s-0.4,0.6-0.4,1.2v2.5H130.3z"/>
		<path class="st3" d="M135,53.8l0.8-0.1c0,0.3,0.2,0.6,0.4,0.7s0.5,0.3,0.8,0.3c0.4,0,0.6-0.1,0.8-0.2s0.3-0.3,0.3-0.5
			c0-0.2-0.1-0.3-0.2-0.4c-0.1-0.1-0.4-0.2-0.8-0.3c-0.6-0.1-1-0.3-1.2-0.4c-0.2-0.1-0.4-0.3-0.5-0.4c-0.1-0.2-0.2-0.4-0.2-0.6
			c0-0.2,0-0.4,0.1-0.6c0.1-0.2,0.2-0.3,0.4-0.4c0.1-0.1,0.3-0.2,0.5-0.2s0.4-0.1,0.7-0.1c0.4,0,0.7,0.1,1,0.2
			c0.3,0.1,0.5,0.2,0.6,0.4c0.1,0.2,0.2,0.4,0.3,0.7l-0.8,0.1c0-0.2-0.1-0.4-0.3-0.6c-0.2-0.1-0.4-0.2-0.7-0.2
			c-0.4,0-0.6,0.1-0.8,0.2s-0.2,0.3-0.2,0.4c0,0.1,0,0.2,0.1,0.3c0.1,0.1,0.2,0.2,0.3,0.2c0.1,0,0.3,0.1,0.7,0.2
			c0.6,0.1,0.9,0.3,1.2,0.4c0.2,0.1,0.4,0.2,0.5,0.4s0.2,0.4,0.2,0.7c0,0.3-0.1,0.5-0.2,0.7c-0.2,0.2-0.4,0.4-0.7,0.5
			c-0.3,0.1-0.6,0.2-1,0.2c-0.6,0-1.1-0.1-1.4-0.4C135.3,54.6,135,54.3,135,53.8z"/>
		<path class="st3" d="M141.5,54.5l0.1,0.7c-0.2,0-0.4,0.1-0.6,0.1c-0.3,0-0.5,0-0.7-0.1s-0.3-0.2-0.3-0.4s-0.1-0.5-0.1-0.9v-2.7
			h-0.6v-0.6h0.6v-1.2l0.8-0.5v1.6h0.8v0.6h-0.8v2.7c0,0.2,0,0.4,0,0.4s0.1,0.1,0.1,0.2c0.1,0,0.2,0.1,0.3,0.1
			C141.2,54.5,141.4,54.5,141.5,54.5z"/>
		<path class="st3" d="M142,52.8c0-0.9,0.2-1.5,0.7-1.9c0.4-0.3,0.9-0.5,1.5-0.5c0.6,0,1.2,0.2,1.6,0.6s0.6,1,0.6,1.7
			c0,0.6-0.1,1.1-0.3,1.4c-0.2,0.3-0.4,0.6-0.8,0.8s-0.7,0.3-1.1,0.3c-0.7,0-1.2-0.2-1.6-0.6C142.2,54.2,142,53.6,142,52.8z
			 M142.8,52.8c0,0.6,0.1,1,0.4,1.3c0.3,0.3,0.6,0.4,1,0.4c0.4,0,0.7-0.1,1-0.4s0.4-0.8,0.4-1.4c0-0.6-0.1-1-0.4-1.3
			c-0.3-0.3-0.6-0.4-1-0.4c-0.4,0-0.7,0.1-1,0.4S142.8,52.2,142.8,52.8z"/>
		<path class="st3" d="M147.3,55.2v-4.7h0.7v0.7c0.3-0.5,0.8-0.8,1.5-0.8c0.3,0,0.5,0.1,0.8,0.2c0.2,0.1,0.4,0.2,0.5,0.4
			s0.2,0.4,0.2,0.6c0,0.1,0,0.4,0,0.8v2.9h-0.8v-2.8c0-0.3,0-0.6-0.1-0.7s-0.2-0.3-0.3-0.4c-0.2-0.1-0.3-0.1-0.6-0.1
			c-0.3,0-0.6,0.1-0.9,0.3s-0.4,0.6-0.4,1.2v2.5H147.3z"/>
		<path class="st3" d="M154.6,53.1l0.8-0.1c0,0.3,0.1,0.6,0.3,0.8c0.1,0.2,0.4,0.4,0.6,0.5c0.3,0.1,0.6,0.2,1,0.2
			c0.3,0,0.6,0,0.9-0.1s0.4-0.2,0.6-0.4s0.2-0.4,0.2-0.6c0-0.2-0.1-0.4-0.2-0.5s-0.3-0.3-0.6-0.4c-0.2-0.1-0.6-0.2-1.1-0.3
			s-1-0.3-1.2-0.4c-0.3-0.2-0.5-0.4-0.7-0.6c-0.2-0.2-0.2-0.5-0.2-0.8c0-0.3,0.1-0.6,0.3-0.9s0.5-0.5,0.8-0.6s0.7-0.2,1.2-0.2
			c0.5,0,0.9,0.1,1.3,0.2c0.4,0.2,0.6,0.4,0.8,0.7s0.3,0.6,0.3,1l-0.8,0.1c0-0.4-0.2-0.7-0.4-0.9c-0.3-0.2-0.6-0.3-1.1-0.3
			c-0.5,0-0.9,0.1-1.1,0.3c-0.2,0.2-0.4,0.4-0.4,0.7c0,0.2,0.1,0.4,0.3,0.6c0.2,0.1,0.6,0.3,1.3,0.5c0.7,0.2,1.2,0.3,1.4,0.4
			c0.4,0.2,0.7,0.4,0.8,0.7s0.3,0.6,0.3,0.9c0,0.3-0.1,0.7-0.3,1c-0.2,0.3-0.5,0.5-0.8,0.7c-0.4,0.2-0.8,0.3-1.2,0.3
			c-0.6,0-1.1-0.1-1.5-0.3c-0.4-0.2-0.7-0.4-0.9-0.8C154.7,53.9,154.6,53.5,154.6,53.1z"/>
		<path class="st3" d="M162.5,54.5l0.1,0.7c-0.2,0-0.4,0.1-0.6,0.1c-0.3,0-0.5,0-0.7-0.1s-0.3-0.2-0.3-0.4s-0.1-0.5-0.1-0.9v-2.7
			h-0.6v-0.6h0.6v-1.2l0.8-0.5v1.6h0.8v0.6h-0.8v2.7c0,0.2,0,0.4,0,0.4s0.1,0.1,0.1,0.2c0.1,0,0.2,0.1,0.3,0.1
			C162.3,54.5,162.4,54.5,162.5,54.5z"/>
		<path class="st3" d="M163.5,55.2v-0.9h0.9v0.9c0,0.3-0.1,0.6-0.2,0.8s-0.3,0.4-0.6,0.5l-0.2-0.3c0.2-0.1,0.3-0.2,0.4-0.3
			c0.1-0.1,0.1-0.3,0.1-0.6H163.5z"/>
		<path class="st3" d="M167.2,55.2l2.5-6.4h0.9l2.6,6.4h-1l-0.8-2h-2.7l-0.7,2H167.2z M169,52.5h2.2l-0.7-1.8
			c-0.2-0.5-0.4-1-0.5-1.3c-0.1,0.4-0.2,0.8-0.3,1.2L169,52.5z"/>
		<path class="st3" d="M174.5,55.2h-0.7v-6.4h0.8V51c0.3-0.4,0.8-0.6,1.3-0.6c0.3,0,0.6,0.1,0.8,0.2s0.5,0.3,0.6,0.5
			c0.2,0.2,0.3,0.5,0.4,0.8s0.1,0.6,0.1,0.9c0,0.8-0.2,1.4-0.6,1.9s-0.9,0.7-1.4,0.7c-0.6,0-1-0.2-1.3-0.7V55.2z M174.5,52.8
			c0,0.6,0.1,1,0.2,1.2c0.2,0.4,0.6,0.6,1,0.6c0.3,0,0.6-0.1,0.9-0.5s0.4-0.7,0.4-1.3c0-0.6-0.1-1.1-0.4-1.3
			c-0.2-0.3-0.5-0.4-0.9-0.4c-0.3,0-0.6,0.2-0.9,0.5C174.6,51.8,174.5,52.2,174.5,52.8z"/>
		<path class="st3" d="M179.5,55.2h-0.7v-6.4h0.8V51c0.3-0.4,0.8-0.6,1.3-0.6c0.3,0,0.6,0.1,0.8,0.2c0.3,0.1,0.5,0.3,0.6,0.5
			c0.2,0.2,0.3,0.5,0.4,0.8s0.1,0.6,0.1,0.9c0,0.8-0.2,1.4-0.6,1.9c-0.4,0.4-0.9,0.7-1.4,0.7c-0.6,0-1-0.2-1.3-0.7V55.2z
			 M179.5,52.8c0,0.6,0.1,1,0.2,1.2c0.2,0.4,0.6,0.6,1,0.6c0.3,0,0.6-0.1,0.9-0.5s0.4-0.7,0.4-1.3c0-0.6-0.1-1.1-0.4-1.3
			c-0.2-0.3-0.5-0.4-0.9-0.4c-0.3,0-0.6,0.2-0.9,0.5C179.7,51.8,179.5,52.2,179.5,52.8z"/>
		<path class="st3" d="M183.5,52.8c0-0.9,0.2-1.5,0.7-1.9c0.4-0.3,0.9-0.5,1.5-0.5c0.6,0,1.2,0.2,1.6,0.6s0.6,1,0.6,1.7
			c0,0.6-0.1,1.1-0.3,1.4c-0.2,0.3-0.4,0.6-0.8,0.8c-0.3,0.2-0.7,0.3-1.1,0.3c-0.7,0-1.2-0.2-1.6-0.6
			C183.7,54.2,183.5,53.6,183.5,52.8z M184.3,52.8c0,0.6,0.1,1,0.4,1.3c0.3,0.3,0.6,0.4,1,0.4c0.4,0,0.7-0.1,1-0.4s0.4-0.8,0.4-1.4
			c0-0.6-0.1-1-0.4-1.3c-0.3-0.3-0.6-0.4-1-0.4c-0.4,0-0.7,0.1-1,0.4S184.3,52.2,184.3,52.8z"/>
		<path class="st3" d="M190.5,54.5l0.1,0.7c-0.2,0-0.4,0.1-0.6,0.1c-0.3,0-0.5,0-0.7-0.1s-0.3-0.2-0.3-0.4s-0.1-0.5-0.1-0.9v-2.7
			h-0.6v-0.6h0.6v-1.2l0.8-0.5v1.6h0.8v0.6h-0.8v2.7c0,0.2,0,0.4,0,0.4c0,0.1,0.1,0.1,0.1,0.2c0.1,0,0.2,0.1,0.3,0.1
			C190.3,54.5,190.4,54.5,190.5,54.5z"/>
		<path class="st3" d="M191,53.8l0.8-0.1c0,0.3,0.2,0.6,0.4,0.7c0.2,0.2,0.5,0.3,0.8,0.3c0.4,0,0.6-0.1,0.8-0.2s0.3-0.3,0.3-0.5
			c0-0.2-0.1-0.3-0.2-0.4c-0.1-0.1-0.4-0.2-0.8-0.3c-0.6-0.1-1-0.3-1.2-0.4c-0.2-0.1-0.4-0.3-0.5-0.4c-0.1-0.2-0.2-0.4-0.2-0.6
			c0-0.2,0-0.4,0.1-0.6c0.1-0.2,0.2-0.3,0.4-0.4c0.1-0.1,0.3-0.2,0.5-0.2c0.2-0.1,0.4-0.1,0.7-0.1c0.4,0,0.7,0.1,1,0.2
			c0.3,0.1,0.5,0.2,0.6,0.4c0.1,0.2,0.2,0.4,0.3,0.7l-0.8,0.1c0-0.2-0.1-0.4-0.3-0.6c-0.2-0.1-0.4-0.2-0.7-0.2
			c-0.4,0-0.6,0.1-0.8,0.2s-0.2,0.3-0.2,0.4c0,0.1,0,0.2,0.1,0.3c0.1,0.1,0.2,0.2,0.3,0.2c0.1,0,0.3,0.1,0.7,0.2
			c0.6,0.1,1,0.3,1.2,0.4c0.2,0.1,0.4,0.2,0.5,0.4s0.2,0.4,0.2,0.7c0,0.3-0.1,0.5-0.2,0.7c-0.2,0.2-0.4,0.4-0.7,0.5
			c-0.3,0.1-0.6,0.2-1,0.2c-0.6,0-1.1-0.1-1.4-0.4C191.3,54.6,191.1,54.3,191,53.8z"/>
		<path class="st3" d="M196,55.2v-4.1h-0.7v-0.6h0.7V50c0-0.3,0-0.5,0.1-0.7c0.1-0.2,0.2-0.4,0.4-0.5c0.2-0.1,0.5-0.2,0.8-0.2
			c0.2,0,0.5,0,0.7,0.1l-0.1,0.7c-0.2,0-0.3,0-0.5,0c-0.2,0-0.4,0.1-0.5,0.2c-0.1,0.1-0.2,0.3-0.2,0.6v0.4h0.9v0.6h-0.9v4.1H196z"/>
		<path class="st3" d="M198,52.8c0-0.9,0.2-1.5,0.7-1.9c0.4-0.3,0.9-0.5,1.5-0.5c0.6,0,1.2,0.2,1.6,0.6s0.6,1,0.6,1.7
			c0,0.6-0.1,1.1-0.3,1.4c-0.2,0.3-0.4,0.6-0.8,0.8c-0.3,0.2-0.7,0.3-1.1,0.3c-0.7,0-1.2-0.2-1.6-0.6C198.2,54.2,198,53.6,198,52.8z
			 M198.8,52.8c0,0.6,0.1,1,0.4,1.3c0.3,0.3,0.6,0.4,1,0.4c0.4,0,0.7-0.1,1-0.4s0.4-0.8,0.4-1.4c0-0.6-0.1-1-0.4-1.3
			c-0.3-0.3-0.6-0.4-1-0.4c-0.4,0-0.7,0.1-1,0.4S198.8,52.2,198.8,52.8z"/>
		<path class="st3" d="M203.3,55.2v-4.7h0.7v0.7c0.2-0.3,0.3-0.5,0.5-0.7c0.2-0.1,0.3-0.2,0.5-0.2c0.3,0,0.5,0.1,0.8,0.3l-0.3,0.7
			c-0.2-0.1-0.4-0.2-0.6-0.2c-0.2,0-0.3,0.1-0.5,0.2s-0.2,0.2-0.3,0.4c-0.1,0.3-0.1,0.6-0.1,0.9v2.4H203.3z"/>
		<path class="st3" d="M209.3,55.2v-0.6c-0.3,0.5-0.7,0.7-1.3,0.7c-0.4,0-0.7-0.1-1-0.3c-0.3-0.2-0.6-0.5-0.7-0.9
			c-0.2-0.4-0.3-0.8-0.3-1.3c0-0.5,0.1-0.9,0.2-1.3c0.2-0.4,0.4-0.7,0.7-0.9s0.7-0.3,1-0.3c0.3,0,0.5,0.1,0.8,0.2
			c0.2,0.1,0.4,0.3,0.5,0.5v-2.3h0.8v6.4H209.3z M206.8,52.8c0,0.6,0.1,1,0.4,1.3s0.5,0.4,0.9,0.4c0.3,0,0.6-0.1,0.9-0.4
			c0.2-0.3,0.4-0.7,0.4-1.3c0-0.6-0.1-1.1-0.4-1.4s-0.5-0.4-0.9-0.4c-0.4,0-0.6,0.1-0.9,0.4C207,51.8,206.8,52.2,206.8,52.8z"/>
		<path class="st3" d="M22.8,75.2v-6.4h2.7c0.7,0,1.2,0.1,1.5,0.2c0.3,0.1,0.6,0.3,0.7,0.6s0.3,0.6,0.3,1c0,0.5-0.1,0.9-0.4,1.2
			s-0.7,0.5-1.3,0.6c0.3,0.2,0.5,0.3,0.7,0.5s0.4,0.5,0.7,1l0.8,1.3H27l-0.9-1.4c-0.3-0.5-0.6-0.8-0.7-0.9s-0.3-0.2-0.4-0.3
			c-0.1,0-0.4-0.1-0.7-0.1h-0.3v2.7H22.8z M24.1,71.4h1c0.6,0,1,0,1.2-0.1s0.3-0.1,0.4-0.3s0.1-0.3,0.1-0.5c0-0.2-0.1-0.4-0.2-0.5
			c-0.1-0.1-0.3-0.2-0.5-0.3c-0.1,0-0.4,0-0.9,0h-1V71.4z"/>
		<path class="st3" d="M32,73.7l1.2,0.2c-0.2,0.5-0.4,0.8-0.7,1c-0.3,0.2-0.8,0.4-1.3,0.4c-0.8,0-1.4-0.3-1.8-0.8
			c-0.3-0.4-0.5-1-0.5-1.6c0-0.8,0.2-1.4,0.6-1.8s0.9-0.7,1.5-0.7c0.7,0,1.2,0.2,1.6,0.7c0.4,0.5,0.6,1.2,0.6,2.1h-3.1
			c0,0.4,0.1,0.7,0.3,0.9c0.2,0.2,0.4,0.3,0.7,0.3c0.2,0,0.4-0.1,0.5-0.2S31.9,73.9,32,73.7z M32,72.4c0-0.4-0.1-0.6-0.3-0.8
			c-0.2-0.2-0.4-0.3-0.6-0.3c-0.3,0-0.5,0.1-0.7,0.3s-0.3,0.5-0.3,0.8H32z"/>
		<path class="st3" d="M38.3,71.9l-1.2,0.2c0-0.2-0.1-0.4-0.3-0.5c-0.1-0.1-0.3-0.2-0.6-0.2c-0.3,0-0.6,0.1-0.7,0.3
			s-0.3,0.6-0.3,1.1c0,0.6,0.1,0.9,0.3,1.2c0.2,0.2,0.4,0.3,0.7,0.3c0.2,0,0.4-0.1,0.6-0.2s0.3-0.4,0.3-0.7l1.2,0.2
			c-0.1,0.6-0.4,1-0.7,1.3s-0.8,0.4-1.4,0.4c-0.7,0-1.2-0.2-1.6-0.6c-0.4-0.4-0.6-1-0.6-1.8c0-0.8,0.2-1.4,0.6-1.8
			c0.4-0.4,1-0.6,1.7-0.6c0.6,0,1,0.1,1.4,0.4S38.2,71.4,38.3,71.9z"/>
		<path class="st3" d="M42,73.7l1.2,0.2c-0.2,0.5-0.4,0.8-0.7,1c-0.3,0.2-0.8,0.4-1.3,0.4c-0.8,0-1.4-0.3-1.8-0.8
			c-0.3-0.4-0.5-1-0.5-1.6c0-0.8,0.2-1.4,0.6-1.8s0.9-0.7,1.5-0.7c0.7,0,1.2,0.2,1.6,0.7c0.4,0.5,0.6,1.2,0.6,2.1h-3.1
			c0,0.4,0.1,0.7,0.3,0.9c0.2,0.2,0.4,0.3,0.7,0.3c0.2,0,0.4-0.1,0.5-0.2S41.9,73.9,42,73.7z M42.1,72.4c0-0.4-0.1-0.6-0.3-0.8
			c-0.2-0.2-0.4-0.3-0.6-0.3c-0.3,0-0.5,0.1-0.7,0.3s-0.3,0.5-0.3,0.8H42.1z"/>
		<path class="st3" d="M44.3,70.5h1.2v0.7c0.1-0.2,0.4-0.4,0.6-0.6s0.5-0.2,0.8-0.2c0.5,0,1,0.2,1.4,0.6s0.6,1,0.6,1.8
			c0,0.8-0.2,1.4-0.6,1.8c-0.4,0.4-0.8,0.6-1.4,0.6c-0.3,0-0.5-0.1-0.7-0.2s-0.4-0.3-0.7-0.5v2.4h-1.2V70.5z M45.5,72.7
			c0,0.5,0.1,0.9,0.3,1.2c0.2,0.2,0.5,0.4,0.8,0.4c0.3,0,0.5-0.1,0.7-0.3c0.2-0.2,0.3-0.6,0.3-1.1c0-0.5-0.1-0.9-0.3-1.1
			s-0.4-0.4-0.7-0.4c-0.3,0-0.6,0.1-0.8,0.3C45.6,71.9,45.5,72.3,45.5,72.7z"/>
		<path class="st3" d="M51.9,70.5v1h-0.8v1.9c0,0.4,0,0.6,0,0.7c0,0.1,0.1,0.1,0.1,0.2c0.1,0,0.1,0.1,0.2,0.1c0.1,0,0.3,0,0.5-0.1
			l0.1,1c-0.3,0.1-0.6,0.2-1,0.2c-0.2,0-0.4,0-0.6-0.1c-0.2-0.1-0.3-0.2-0.4-0.3c-0.1-0.1-0.1-0.3-0.2-0.5c0-0.1,0-0.4,0-0.9v-2
			h-0.6v-1h0.6v-0.9l1.2-0.7v1.6H51.9z"/>
		<path class="st3" d="M52.8,69.9v-1.1H54v1.1H52.8z M52.8,75.2v-4.7H54v4.7H52.8z"/>
		<path class="st3" d="M55,72.8c0-0.4,0.1-0.8,0.3-1.2s0.5-0.7,0.9-0.9s0.8-0.3,1.2-0.3c0.7,0,1.3,0.2,1.7,0.7
			c0.5,0.5,0.7,1,0.7,1.7c0,0.7-0.2,1.3-0.7,1.8s-1,0.7-1.7,0.7c-0.4,0-0.8-0.1-1.2-0.3s-0.7-0.5-0.9-0.9C55.1,73.8,55,73.3,55,72.8
			z M56.3,72.8c0,0.5,0.1,0.8,0.3,1.1s0.5,0.4,0.8,0.4s0.6-0.1,0.8-0.4s0.3-0.6,0.3-1.1c0-0.5-0.1-0.8-0.3-1.1s-0.5-0.4-0.8-0.4
			s-0.6,0.1-0.8,0.4S56.3,72.4,56.3,72.8z"/>
		<path class="st3" d="M65,75.2h-1.2v-2.4c0-0.5,0-0.8-0.1-1s-0.1-0.3-0.3-0.3c-0.1-0.1-0.3-0.1-0.4-0.1c-0.2,0-0.4,0.1-0.6,0.2
			s-0.3,0.3-0.3,0.5C62,72.2,62,72.5,62,73v2.1h-1.2v-4.7h1.1v0.7c0.4-0.5,0.9-0.8,1.5-0.8c0.3,0,0.5,0,0.7,0.1s0.4,0.2,0.5,0.4
			s0.2,0.3,0.2,0.5c0,0.2,0.1,0.5,0.1,0.8V75.2z"/>
		<path class="st3" d="M68.5,73.5l1.2-0.1c0,0.3,0.1,0.5,0.3,0.7s0.4,0.2,0.6,0.2c0.3,0,0.5-0.1,0.6-0.3c0.2-0.2,0.3-0.5,0.3-0.8
			c0-0.3-0.1-0.6-0.3-0.7s-0.4-0.3-0.6-0.3c-0.2,0-0.3,0-0.6,0.1l0.1-1c0.3,0,0.6-0.1,0.8-0.2c0.2-0.2,0.3-0.4,0.3-0.6
			c0-0.2-0.1-0.4-0.2-0.5s-0.3-0.2-0.5-0.2c-0.2,0-0.4,0.1-0.5,0.2s-0.2,0.4-0.3,0.6l-1.1-0.2c0.1-0.4,0.2-0.7,0.4-0.9
			c0.2-0.2,0.4-0.4,0.7-0.5c0.3-0.1,0.6-0.2,1-0.2c0.6,0,1.1,0.2,1.5,0.6c0.3,0.3,0.5,0.7,0.5,1.1c0,0.6-0.3,1-0.9,1.4
			c0.4,0.1,0.7,0.3,0.9,0.5c0.2,0.3,0.3,0.6,0.3,1c0,0.6-0.2,1-0.6,1.4s-0.9,0.6-1.5,0.6c-0.6,0-1.1-0.2-1.5-0.5
			C68.8,74.4,68.5,74,68.5,73.5z"/>
		<path class="st3" d="M74,71.7v-1.2h1.2v1.2H74z M74,75.2v-1.2h1.2v1.2H74z"/>
		<path class="st3" d="M76.5,73.5l1.2-0.1c0,0.3,0.1,0.5,0.3,0.7s0.4,0.2,0.6,0.2c0.3,0,0.5-0.1,0.6-0.3c0.2-0.2,0.3-0.5,0.3-0.8
			c0-0.3-0.1-0.6-0.3-0.7s-0.4-0.3-0.6-0.3c-0.2,0-0.3,0-0.6,0.1l0.1-1c0.3,0,0.6-0.1,0.8-0.2c0.2-0.2,0.3-0.4,0.3-0.6
			c0-0.2-0.1-0.4-0.2-0.5s-0.3-0.2-0.5-0.2c-0.2,0-0.4,0.1-0.5,0.2s-0.2,0.4-0.3,0.6l-1.1-0.2c0.1-0.4,0.2-0.7,0.4-0.9
			c0.2-0.2,0.4-0.4,0.7-0.5c0.3-0.1,0.6-0.2,1-0.2c0.6,0,1.1,0.2,1.5,0.6c0.3,0.3,0.5,0.7,0.5,1.1c0,0.6-0.3,1-0.9,1.4
			c0.4,0.1,0.7,0.3,0.9,0.5c0.2,0.3,0.3,0.6,0.3,1c0,0.6-0.2,1-0.6,1.4s-0.9,0.6-1.5,0.6c-0.6,0-1.1-0.2-1.5-0.5
			C76.8,74.4,76.5,74,76.5,73.5z"/>
		<path class="st3" d="M83.6,68.7c0.6,0,1.1,0.2,1.5,0.7c0.4,0.5,0.6,1.4,0.6,2.6c0,1.2-0.2,2.1-0.6,2.6c-0.3,0.4-0.8,0.7-1.5,0.7
			c-0.6,0-1.1-0.2-1.5-0.7c-0.4-0.5-0.6-1.3-0.6-2.6c0-1.2,0.2-2.1,0.6-2.6C82.5,68.9,83,68.7,83.6,68.7z M83.6,69.7
			c-0.1,0-0.3,0-0.4,0.1s-0.2,0.3-0.3,0.5c-0.1,0.3-0.1,0.9-0.1,1.6s0,1.3,0.1,1.6s0.2,0.5,0.3,0.6c0.1,0.1,0.2,0.1,0.4,0.1
			s0.3,0,0.4-0.1s0.2-0.3,0.3-0.5c0.1-0.3,0.1-0.9,0.1-1.6s0-1.3-0.1-1.6c-0.1-0.3-0.2-0.5-0.3-0.6S83.8,69.7,83.6,69.7z"/>
		<path class="st3" d="M86.8,70.5h1.2v0.7c0.1-0.2,0.4-0.4,0.6-0.6s0.5-0.2,0.8-0.2c0.5,0,1,0.2,1.4,0.6s0.6,1,0.6,1.8
			c0,0.8-0.2,1.4-0.6,1.8c-0.4,0.4-0.8,0.6-1.4,0.6c-0.3,0-0.5-0.1-0.7-0.2s-0.4-0.3-0.7-0.5v2.4h-1.2V70.5z M88,72.7
			c0,0.5,0.1,0.9,0.3,1.2c0.2,0.2,0.5,0.4,0.8,0.4c0.3,0,0.5-0.1,0.7-0.3c0.2-0.2,0.3-0.6,0.3-1.1c0-0.5-0.1-0.9-0.3-1.1
			s-0.4-0.4-0.7-0.4c-0.3,0-0.6,0.1-0.8,0.3C88.1,71.9,88,72.3,88,72.7z"/>
		<path class="st3" d="M92.2,70.5h1.1v0.6c0.4-0.5,0.9-0.7,1.5-0.7c0.3,0,0.6,0.1,0.8,0.2s0.4,0.3,0.5,0.6c0.2-0.2,0.4-0.4,0.7-0.6
			s0.5-0.2,0.8-0.2c0.3,0,0.6,0.1,0.9,0.2s0.4,0.3,0.5,0.6c0.1,0.2,0.1,0.5,0.1,1v3h-1.2v-2.7c0-0.5,0-0.8-0.1-0.9
			c-0.1-0.2-0.3-0.3-0.5-0.3c-0.2,0-0.3,0.1-0.5,0.2s-0.3,0.3-0.3,0.5c-0.1,0.2-0.1,0.5-0.1,1v2.2H95v-2.6c0-0.5,0-0.7-0.1-0.9
			s-0.1-0.2-0.2-0.3c-0.1-0.1-0.2-0.1-0.4-0.1c-0.2,0-0.4,0.1-0.5,0.2s-0.3,0.3-0.3,0.4c-0.1,0.2-0.1,0.5-0.1,1v2.3h-1.2V70.5z"/>
		<path class="st3" d="M26.7,84.4v0.8h-4.3c0-0.2,0-0.4,0.1-0.5c0.1-0.3,0.3-0.6,0.5-0.9c0.2-0.3,0.6-0.6,1-1c0.7-0.6,1.2-1,1.4-1.4
			s0.4-0.7,0.4-1c0-0.3-0.1-0.6-0.3-0.8c-0.2-0.2-0.5-0.3-0.9-0.3c-0.4,0-0.7,0.1-0.9,0.3s-0.3,0.5-0.3,0.9l-0.8-0.1
			c0.1-0.6,0.3-1.1,0.6-1.4c0.4-0.3,0.9-0.5,1.5-0.5c0.6,0,1.1,0.2,1.5,0.5s0.5,0.8,0.5,1.3c0,0.3-0.1,0.5-0.2,0.8S26.2,81.8,26,82
			c-0.2,0.3-0.7,0.7-1.2,1.1c-0.5,0.4-0.8,0.7-0.9,0.8s-0.2,0.3-0.3,0.4H26.7z"/>
		<path class="st3" d="M31.7,84.4v0.8h-4.3c0-0.2,0-0.4,0.1-0.5c0.1-0.3,0.3-0.6,0.5-0.9c0.2-0.3,0.6-0.6,1-1c0.7-0.6,1.2-1,1.4-1.4
			s0.4-0.7,0.4-1c0-0.3-0.1-0.6-0.3-0.8c-0.2-0.2-0.5-0.3-0.9-0.3c-0.4,0-0.7,0.1-0.9,0.3s-0.3,0.5-0.3,0.9l-0.8-0.1
			c0.1-0.6,0.3-1.1,0.6-1.4c0.4-0.3,0.9-0.5,1.5-0.5c0.6,0,1.1,0.2,1.5,0.5s0.5,0.8,0.5,1.3c0,0.3-0.1,0.5-0.2,0.8S31.2,81.8,31,82
			c-0.2,0.3-0.7,0.7-1.2,1.1c-0.5,0.4-0.8,0.7-0.9,0.8s-0.2,0.3-0.3,0.4H31.7z"/>
		<path class="st3" d="M35.5,85.2h-0.8v-5c-0.2,0.2-0.4,0.4-0.7,0.5s-0.6,0.3-0.8,0.4v-0.8c0.4-0.2,0.8-0.5,1.2-0.8s0.6-0.6,0.7-0.9
			h0.5V85.2z"/>
		<path class="st3" d="M45.2,84.5c0.4,0.3,0.8,0.5,1.1,0.6l-0.3,0.6c-0.5-0.2-0.9-0.4-1.4-0.8c-0.5,0.3-1,0.4-1.6,0.4
			c-0.6,0-1.1-0.1-1.6-0.4s-0.8-0.7-1.1-1.2c-0.3-0.5-0.4-1.1-0.4-1.7c0-0.6,0.1-1.2,0.4-1.7s0.6-0.9,1.1-1.2s1-0.4,1.6-0.4
			c0.6,0,1.1,0.1,1.6,0.4c0.5,0.3,0.8,0.7,1.1,1.2c0.3,0.5,0.4,1.1,0.4,1.7c0,0.5-0.1,1-0.2,1.4S45.5,84.2,45.2,84.5z M43.3,83.4
			c0.5,0.1,0.9,0.3,1.2,0.6c0.5-0.5,0.8-1.1,0.8-2.1c0-0.5-0.1-1-0.3-1.4c-0.2-0.4-0.4-0.7-0.8-0.9c-0.3-0.2-0.7-0.3-1.1-0.3
			c-0.6,0-1.2,0.2-1.6,0.7c-0.4,0.4-0.6,1.1-0.6,1.9c0,0.8,0.2,1.5,0.6,1.9c0.4,0.4,0.9,0.7,1.6,0.7c0.3,0,0.6-0.1,0.9-0.2
			c-0.3-0.2-0.5-0.3-0.8-0.4L43.3,83.4z"/>
		<path class="st3" d="M50.3,85.2v-0.7c-0.4,0.5-0.9,0.8-1.5,0.8c-0.3,0-0.5-0.1-0.8-0.2s-0.4-0.2-0.5-0.4c-0.1-0.2-0.2-0.4-0.2-0.6
			c0-0.2,0-0.4,0-0.7v-2.9H48v2.6c0,0.4,0,0.7,0,0.8c0,0.2,0.2,0.4,0.3,0.5c0.2,0.1,0.4,0.2,0.6,0.2s0.5-0.1,0.7-0.2
			s0.4-0.3,0.4-0.5c0.1-0.2,0.1-0.5,0.1-0.9v-2.5H51v4.7H50.3z"/>
		<path class="st3" d="M55.4,83.7l0.8,0.1c-0.1,0.5-0.4,0.8-0.7,1.1s-0.8,0.4-1.3,0.4c-0.7,0-1.2-0.2-1.6-0.6
			c-0.4-0.4-0.6-1-0.6-1.8c0-0.8,0.2-1.4,0.6-1.8s0.9-0.7,1.6-0.7c0.6,0,1.1,0.2,1.5,0.6s0.6,1,0.6,1.8c0,0,0,0.1,0,0.2h-3.5
			c0,0.5,0.2,0.9,0.4,1.2s0.6,0.4,1,0.4c0.3,0,0.5-0.1,0.7-0.2S55.3,84,55.4,83.7z M52.8,82.4h2.6c0-0.4-0.1-0.7-0.3-0.9
			c-0.3-0.3-0.6-0.5-1-0.5c-0.4,0-0.7,0.1-0.9,0.4S52.9,82,52.8,82.4z"/>
		<path class="st3" d="M60.4,83.7l0.8,0.1c-0.1,0.5-0.4,0.8-0.7,1.1s-0.8,0.4-1.3,0.4c-0.7,0-1.2-0.2-1.6-0.6
			c-0.4-0.4-0.6-1-0.6-1.8c0-0.8,0.2-1.4,0.6-1.8s0.9-0.7,1.6-0.7c0.6,0,1.1,0.2,1.5,0.6s0.6,1,0.6,1.8c0,0,0,0.1,0,0.2h-3.5
			c0,0.5,0.2,0.9,0.4,1.2s0.6,0.4,1,0.4c0.3,0,0.5-0.1,0.7-0.2S60.3,84,60.4,83.7z M57.8,82.4h2.6c0-0.4-0.1-0.7-0.3-0.9
			c-0.3-0.3-0.6-0.5-1-0.5c-0.4,0-0.7,0.1-0.9,0.4S57.9,82,57.8,82.4z"/>
		<path class="st3" d="M62.3,85.2v-4.7H63v0.7c0.3-0.5,0.8-0.8,1.5-0.8c0.3,0,0.5,0.1,0.8,0.2c0.2,0.1,0.4,0.2,0.5,0.4
			s0.2,0.4,0.2,0.6c0,0.1,0,0.4,0,0.8v2.9h-0.8v-2.8c0-0.3,0-0.6-0.1-0.7s-0.2-0.3-0.3-0.4c-0.2-0.1-0.3-0.1-0.6-0.1
			c-0.3,0-0.6,0.1-0.9,0.3S63,82,63,82.6v2.5H62.3z"/>
		<path class="st3" d="M69.6,83.1l0.8-0.1c0,0.3,0.1,0.6,0.3,0.8c0.1,0.2,0.4,0.4,0.6,0.5c0.3,0.1,0.6,0.2,1,0.2
			c0.3,0,0.6,0,0.9-0.1s0.4-0.2,0.6-0.4s0.2-0.4,0.2-0.6c0-0.2-0.1-0.4-0.2-0.5s-0.3-0.3-0.6-0.4c-0.2-0.1-0.6-0.2-1.1-0.3
			s-1-0.3-1.2-0.4c-0.3-0.2-0.5-0.4-0.7-0.6c-0.2-0.2-0.2-0.5-0.2-0.8c0-0.3,0.1-0.6,0.3-0.9s0.5-0.5,0.8-0.6s0.7-0.2,1.2-0.2
			c0.5,0,0.9,0.1,1.3,0.2c0.4,0.2,0.6,0.4,0.8,0.7s0.3,0.6,0.3,1l-0.8,0.1c0-0.4-0.2-0.7-0.4-0.9c-0.3-0.2-0.6-0.3-1.1-0.3
			c-0.5,0-0.9,0.1-1.1,0.3c-0.2,0.2-0.4,0.4-0.4,0.7c0,0.2,0.1,0.4,0.3,0.6c0.2,0.1,0.6,0.3,1.3,0.5c0.7,0.2,1.2,0.3,1.4,0.4
			c0.4,0.2,0.7,0.4,0.8,0.7s0.3,0.6,0.3,0.9c0,0.3-0.1,0.7-0.3,1c-0.2,0.3-0.5,0.5-0.8,0.7c-0.4,0.2-0.8,0.3-1.2,0.3
			c-0.6,0-1.1-0.1-1.5-0.3c-0.4-0.2-0.7-0.4-0.9-0.8C69.7,83.9,69.6,83.5,69.6,83.1z"/>
		<path class="st3" d="M77.5,84.5l0.1,0.7c-0.2,0-0.4,0.1-0.6,0.1c-0.3,0-0.5,0-0.7-0.1s-0.3-0.2-0.3-0.4s-0.1-0.5-0.1-0.9v-2.7
			h-0.6v-0.6h0.6v-1.2l0.8-0.5v1.6h0.8v0.6h-0.8v2.7c0,0.2,0,0.4,0,0.4s0.1,0.1,0.1,0.2c0.1,0,0.2,0.1,0.3,0.1
			C77.2,84.5,77.3,84.5,77.5,84.5z"/>
		<path class="st3" d="M78.5,85.2v-0.9h0.9v0.9c0,0.3-0.1,0.6-0.2,0.8s-0.3,0.4-0.6,0.5l-0.2-0.3c0.2-0.1,0.3-0.2,0.4-0.3
			c0.1-0.1,0.1-0.3,0.1-0.6H78.5z"/>
		<path class="st3" d="M83.3,85.2v-6.4h1.3l1.5,4.6c0.1,0.4,0.2,0.7,0.3,1c0.1-0.2,0.2-0.6,0.3-1l1.5-4.5h1.1v6.4h-0.8v-5.4
			l-1.9,5.4H86l-1.9-5.5v5.5H83.3z"/>
		<path class="st3" d="M94,83.7l0.8,0.1c-0.1,0.5-0.4,0.8-0.7,1.1s-0.8,0.4-1.3,0.4c-0.7,0-1.2-0.2-1.6-0.6c-0.4-0.4-0.6-1-0.6-1.8
			c0-0.8,0.2-1.4,0.6-1.8s0.9-0.7,1.6-0.7c0.6,0,1.1,0.2,1.5,0.6s0.6,1,0.6,1.8c0,0,0,0.1,0,0.2h-3.5c0,0.5,0.2,0.9,0.4,1.2
			s0.6,0.4,1,0.4c0.3,0,0.5-0.1,0.7-0.2S93.8,84,94,83.7z M91.4,82.4H94c0-0.4-0.1-0.7-0.3-0.9c-0.3-0.3-0.6-0.5-1-0.5
			c-0.4,0-0.7,0.1-0.9,0.4S91.4,82,91.4,82.4z"/>
		<path class="st3" d="M95.7,85.2v-6.4h0.8v6.4H95.7z"/>
		<path class="st3" d="M98.5,85.2h-0.7v-6.4h0.8V81c0.3-0.4,0.8-0.6,1.3-0.6c0.3,0,0.6,0.1,0.8,0.2s0.5,0.3,0.6,0.5
			c0.2,0.2,0.3,0.5,0.4,0.8s0.1,0.6,0.1,0.9c0,0.8-0.2,1.4-0.6,1.9s-0.9,0.7-1.4,0.7c-0.6,0-1-0.2-1.3-0.7V85.2z M98.5,82.8
			c0,0.6,0.1,1,0.2,1.2c0.2,0.4,0.6,0.6,1,0.6c0.3,0,0.6-0.1,0.9-0.5s0.4-0.7,0.4-1.3c0-0.6-0.1-1.1-0.4-1.3
			c-0.2-0.3-0.5-0.4-0.9-0.4c-0.3,0-0.6,0.2-0.9,0.5C98.6,81.8,98.5,82.2,98.5,82.8z"/>
		<path class="st3" d="M102.5,82.8c0-0.9,0.2-1.5,0.7-1.9c0.4-0.3,0.9-0.5,1.5-0.5c0.6,0,1.2,0.2,1.6,0.6s0.6,1,0.6,1.7
			c0,0.6-0.1,1.1-0.3,1.4c-0.2,0.3-0.4,0.6-0.8,0.8s-0.7,0.3-1.1,0.3c-0.7,0-1.2-0.2-1.6-0.6C102.7,84.2,102.5,83.6,102.5,82.8z
			 M103.3,82.8c0,0.6,0.1,1,0.4,1.3c0.3,0.3,0.6,0.4,1,0.4c0.4,0,0.7-0.1,1-0.4s0.4-0.8,0.4-1.4c0-0.6-0.1-1-0.4-1.3
			c-0.3-0.3-0.6-0.4-1-0.4c-0.4,0-0.7,0.1-1,0.4S103.3,82.2,103.3,82.8z"/>
		<path class="st3" d="M110.8,85.2v-0.7c-0.4,0.5-0.9,0.8-1.5,0.8c-0.3,0-0.5-0.1-0.8-0.2s-0.4-0.2-0.5-0.4
			c-0.1-0.2-0.2-0.4-0.2-0.6c0-0.2,0-0.4,0-0.7v-2.9h0.8v2.6c0,0.4,0,0.7,0,0.8c0,0.2,0.2,0.4,0.3,0.5c0.2,0.1,0.4,0.2,0.6,0.2
			s0.5-0.1,0.7-0.2s0.4-0.3,0.4-0.5c0.1-0.2,0.1-0.5,0.1-0.9v-2.5h0.8v4.7H110.8z"/>
		<path class="st3" d="M112.8,85.2v-4.7h0.7v0.7c0.2-0.3,0.3-0.5,0.5-0.7c0.2-0.1,0.3-0.2,0.5-0.2c0.3,0,0.5,0.1,0.8,0.3l-0.3,0.7
			c-0.2-0.1-0.4-0.2-0.6-0.2c-0.2,0-0.3,0.1-0.5,0.2s-0.2,0.2-0.3,0.4c-0.1,0.3-0.1,0.6-0.1,0.9v2.4H112.8z"/>
		<path class="st3" d="M115.8,85.2v-4.7h0.7v0.7c0.3-0.5,0.8-0.8,1.5-0.8c0.3,0,0.5,0.1,0.8,0.2c0.2,0.1,0.4,0.2,0.5,0.4
			s0.2,0.4,0.2,0.6c0,0.1,0,0.4,0,0.8v2.9h-0.8v-2.8c0-0.3,0-0.6-0.1-0.7s-0.2-0.3-0.3-0.4c-0.2-0.1-0.3-0.1-0.6-0.1
			c-0.3,0-0.6,0.1-0.9,0.3s-0.4,0.6-0.4,1.2v2.5H115.8z"/>
		<path class="st3" d="M124,83.7l0.8,0.1c-0.1,0.5-0.4,0.8-0.7,1.1s-0.8,0.4-1.3,0.4c-0.7,0-1.2-0.2-1.6-0.6c-0.4-0.4-0.6-1-0.6-1.8
			c0-0.8,0.2-1.4,0.6-1.8s0.9-0.7,1.6-0.7c0.6,0,1.1,0.2,1.5,0.6s0.6,1,0.6,1.8c0,0,0,0.1,0,0.2h-3.5c0,0.5,0.2,0.9,0.4,1.2
			s0.6,0.4,1,0.4c0.3,0,0.5-0.1,0.7-0.2S123.9,84,124,83.7z M121.4,82.4h2.6c0-0.4-0.1-0.7-0.3-0.9c-0.3-0.3-0.6-0.5-1-0.5
			c-0.4,0-0.7,0.1-0.9,0.4S121.4,82,121.4,82.4z"/>
	</g>
</g>
<g id="rsvp">
	<g>
		<path class="st3" d="M264.8,599.8v-9.7h4.1c1,0,1.8,0.1,2.3,0.3c0.5,0.2,0.8,0.5,1.1,0.9c0.3,0.4,0.4,1,0.4,1.5
			c0,0.7-0.2,1.3-0.6,1.8c-0.4,0.5-1.1,0.8-1.9,0.9c0.4,0.2,0.8,0.5,1,0.8c0.3,0.3,0.6,0.8,1.1,1.6l1.2,1.9h-2.3l-1.4-2.1
			c-0.5-0.8-0.8-1.2-1-1.4c-0.2-0.2-0.4-0.3-0.6-0.4c-0.2-0.1-0.5-0.1-1-0.1h-0.4v4H264.8z M266.8,594.3h1.4c0.9,0,1.5,0,1.8-0.1
			c0.2-0.1,0.4-0.2,0.5-0.4c0.1-0.2,0.2-0.4,0.2-0.7c0-0.3-0.1-0.6-0.3-0.8c-0.2-0.2-0.4-0.3-0.7-0.4c-0.2,0-0.6,0-1.4,0h-1.5V594.3
			z"/>
		<path class="st3" d="M274.1,596.7l1.9-0.2c0.1,0.6,0.3,1.1,0.7,1.4c0.3,0.3,0.8,0.4,1.4,0.4c0.6,0,1.1-0.1,1.4-0.4
			c0.3-0.3,0.5-0.6,0.5-0.9c0-0.2-0.1-0.4-0.2-0.6c-0.1-0.2-0.4-0.3-0.7-0.4c-0.2-0.1-0.8-0.2-1.6-0.4c-1-0.3-1.8-0.6-2.2-1
			c-0.6-0.5-0.9-1.2-0.9-1.9c0-0.5,0.1-1,0.4-1.4c0.3-0.4,0.7-0.8,1.2-1c0.5-0.2,1.2-0.3,1.9-0.3c1.2,0,2.1,0.3,2.7,0.8
			c0.6,0.5,0.9,1.2,1,2.1l-2,0.1c-0.1-0.5-0.3-0.9-0.5-1.1c-0.3-0.2-0.7-0.3-1.2-0.3c-0.6,0-1,0.1-1.3,0.3c-0.2,0.1-0.3,0.3-0.3,0.6
			c0,0.2,0.1,0.4,0.3,0.6c0.2,0.2,0.8,0.4,1.8,0.6c0.9,0.2,1.7,0.5,2.1,0.7c0.5,0.2,0.8,0.6,1.1,1c0.3,0.4,0.4,0.9,0.4,1.5
			c0,0.6-0.2,1.1-0.5,1.6c-0.3,0.5-0.7,0.8-1.3,1.1c-0.6,0.2-1.3,0.4-2.1,0.4c-1.2,0-2.2-0.3-2.8-0.8
			C274.6,598.6,274.2,597.8,274.1,596.7z"/>
		<path class="st3" d="M286.1,599.8l-3.5-9.7h2.1l2.4,7.2l2.4-7.2h2.1l-3.5,9.7H286.1z"/>
		<path class="st3" d="M292.6,599.8v-9.7h3.1c1.2,0,2,0,2.3,0.1c0.6,0.1,1,0.5,1.4,0.9c0.4,0.5,0.6,1.1,0.6,1.9
			c0,0.6-0.1,1.1-0.3,1.5c-0.2,0.4-0.5,0.7-0.8,1c-0.3,0.2-0.7,0.4-1,0.5c-0.5,0.1-1.1,0.1-2,0.1h-1.3v3.6H292.6z M294.5,591.8v2.7
			h1.1c0.8,0,1.3-0.1,1.5-0.2c0.3-0.1,0.5-0.3,0.6-0.5c0.1-0.2,0.2-0.5,0.2-0.8c0-0.4-0.1-0.6-0.3-0.9c-0.2-0.2-0.5-0.4-0.8-0.4
			c-0.2,0-0.7-0.1-1.4-0.1H294.5z"/>
	</g>
	<a href="https://sprw.io/stt-24dY2sxmtkUw7mYMXtcwkH" target="_blank">
    <rect x="256.9" y="582.2" class="st4" width="53" height="24.8"/>
    </a>
		
</g>
</svg>
